<svg width="30" height="36" viewBox="0 0 30 36" fill="none" xmlns="http://www.w3.org/2000/svg">
<g filter="url(#filter0_d_26_455)">
<path d="M2 7C2 4.23858 4.23858 2 7 2H21C23.7614 2 26 4.23858 26 7V21C26 23.7614 23.7614 26 21 26H18.5L14.848 30.8693C14.4341 31.4212 13.5987 31.3981 13.216 30.824L10 26H7C4.23858 26 2 23.7614 2 21V7Z" fill="#CF4130"/>
<path d="M14.0732 12.7931L14.0001 12.8662L13.927 12.7931L13.4411 12.3072C13.6212 12.3461 13.8083 12.3666 14.0001 12.3666C14.1919 12.3666 14.379 12.3461 14.5591 12.3072L14.0732 12.7931ZM11.4262 10.2922L11.239 10.1051L10.0443 8.91043L9.70274 8.56887L9.34961 8.89846C7.97678 10.1797 7.1001 11.9729 7.1001 14C7.1001 17.8174 10.1826 20.8999 14.0001 20.8999C17.8176 20.8999 20.9001 17.8174 20.9001 14C20.9001 11.9729 20.0235 10.1797 18.6506 8.89845L18.2974 8.56888L17.9559 8.91043L16.7612 10.1051L16.574 10.2923C16.6129 10.1121 16.6334 9.92512 16.6334 9.7333C16.6334 8.27896 15.4544 7.09998 14.0001 7.09998C12.5457 7.09998 11.3667 8.27896 11.3667 9.7333C11.3667 9.9251 11.3872 10.1121 11.4262 10.2922Z" fill="#5A5A5A" stroke="white"/>
</g>
<defs>
<filter id="filter0_d_26_455" x="0" y="0" width="30" height="36" filterUnits="userSpaceOnUse" color-interpolation-filters="sRGB">
<feFlood flood-opacity="0" result="BackgroundImageFix"/>
<feColorMatrix in="SourceAlpha" type="matrix" values="0 0 0 0 0 0 0 0 0 0 0 0 0 0 0 0 0 0 127 0" result="hardAlpha"/>
<feOffset dx="1" dy="1"/>
<feGaussianBlur stdDeviation="1.5"/>
<feComposite in2="hardAlpha" operator="out"/>
<feColorMatrix type="matrix" values="0 0 0 0 0 0 0 0 0 0.46 0 0 0 0 1 0 0 0 0.41 0"/>
<feBlend mode="normal" in2="BackgroundImageFix" result="effect1_dropShadow_26_455"/>
<feBlend mode="normal" in="SourceGraphic" in2="effect1_dropShadow_26_455" result="shape"/>
</filter>
</defs>
</svg>
