<svg xmlns="http://www.w3.org/2000/svg" width="15" height="15" viewBox="0 0 15 15" fill="none">
<path d="M14 5.74979C14.0113 5.06349 13.6202 4.43389 13 4.13979C12.9475 3.49039 12.4014 2.99239 11.75 2.99979C11.6512 3.00769 11.5538 3.02789 11.46 3.05979C11.3993 2.39979 10.8151 1.91399 10.1552 1.97469C9.89652 1.99849 9.65262 2.10559 9.46002 2.27979C9.46002 1.58939 8.90042 1.02979 8.21002 1.02979C7.51962 1.02979 6.96002 1.58939 6.96002 2.27979C6.96002 2.27979 7.00002 2.29979 7.00002 2.32979C6.48862 1.89109 5.71842 1.95009 5.27972 2.46159C5.13162 2.63429 5.03472 2.84489 5.00002 3.06979C4.84172 3.01929 4.67612 2.99569 4.51002 2.99979C3.68162 2.99289 3.00442 3.65879 2.99752 4.48719C2.99582 4.68699 3.03412 4.88499 3.11002 5.06979C2.31752 5.29129 1.85462 6.11338 2.07612 6.90588C2.21632 7.40758 2.60832 7.79958 3.11002 7.93979C3.36332 8.72268 4.20342 9.15209 4.98632 8.89879C5.52162 8.72559 5.91372 8.26569 6.00002 7.70979C6.18302 7.86889 6.40932 7.96989 6.65002 7.99979V12.9998L5.00002 13.9998H10L8.40002 12.9998V10.9998C9.13812 10.1083 10.0915 9.41989 11.17 8.99979C11.9712 9.18769 12.773 8.69059 12.9609 7.88949C12.9893 7.76839 13.0025 7.64419 13 7.51978C13.0029 7.46649 13.0029 7.41308 13 7.35979C13.6202 7.06569 14.0113 6.43609 14 5.74979ZM8.40002 10.2598V6.81979C8.67032 7.30049 9.17852 7.59848 9.73002 7.59978H10.01C10.0256 8.03888 10.2342 8.44879 10.58 8.71979C9.76432 9.09379 9.02512 9.61599 8.40002 10.2598Z" fill="#118AB2"/>
</svg>