<svg xmlns="http://www.w3.org/2000/svg" width="16" height="17" viewBox="0 0 16 17" fill="none">
<path d="M7.40008 9.36683V9.46683H7.50008H8.50008H8.60008V9.36683V5.8335V5.7335H8.50008H7.50008H7.40008V5.8335V9.36683ZM7.53777 10.1541L7.60841 10.2249L7.53777 10.1541C7.41251 10.2791 7.35008 10.4355 7.35008 10.6165C7.35008 10.7975 7.41236 10.9539 7.53734 11.0791L7.60811 11.0085L7.53734 11.0791C7.66237 11.2044 7.81879 11.2668 7.99978 11.2668C8.18072 11.2668 8.33718 11.2045 8.46239 11.0796L8.39175 11.0088L8.46239 11.0796C8.58765 10.9545 8.65008 10.7981 8.65008 10.6171C8.65008 10.4362 8.5878 10.2797 8.46283 10.1545L8.39205 10.2252L8.46282 10.1545C8.33779 10.0293 8.18137 9.96683 8.00038 9.96683C7.81945 9.96683 7.66298 10.0291 7.53777 10.1541ZM2.56675 13.1668V13.2668H2.66675H13.3334H13.4334V13.1668V12.1668V12.0668H13.3334H12.0501V7.06683C12.0501 6.11014 11.7654 5.25765 11.1962 4.51298C10.6425 3.78854 9.92031 3.32347 9.03341 3.11975V2.71683C9.03341 2.4341 8.93059 2.19579 8.72568 2.0095C8.52311 1.82535 8.27806 1.7335 7.99616 1.7335C7.71425 1.7335 7.47021 1.82537 7.27004 2.00998C7.06789 2.19641 6.96675 2.4346 6.96675 2.71683V3.11976C6.07993 3.32349 5.36042 3.78865 4.81201 4.51337C4.2485 5.25803 3.96675 6.11039 3.96675 7.06683V12.0668H2.66675H2.56675V12.1668V13.1668ZM6.66675 13.7335H6.56675V13.8335C6.56675 14.2276 6.71129 14.5671 6.99679 14.8466C7.28111 15.125 7.61696 15.2668 8.00008 15.2668C8.39348 15.2668 8.73274 15.1256 9.01246 14.8459C9.29217 14.5662 9.43341 14.2269 9.43341 13.8335V13.7335H9.33341H6.66675ZM10.8501 12.0668H5.16675V7.06683C5.16675 6.27063 5.44269 5.59602 5.99613 5.0372C6.54934 4.47862 7.22088 4.20016 8.01675 4.20016C8.81259 4.20016 9.48116 4.47859 10.0287 5.03685C10.5767 5.5956 10.8501 6.27032 10.8501 7.06683V12.0668Z" fill="#FED169" stroke="#FED169" stroke-width="0.2"/>
</svg>