<svg width="16" height="17" viewBox="0 0 16 17" fill="none" xmlns="http://www.w3.org/2000/svg">
<path d="M7.40002 9.36671V9.46671H7.50002H8.50002H8.60002V9.36671V5.83337V5.73337H8.50002H7.50002H7.40002V5.83337V9.36671ZM7.53771 10.154L7.60835 10.2247L7.53771 10.154C7.41245 10.279 7.35002 10.4354 7.35002 10.6164C7.35002 10.7973 7.4123 10.9538 7.53728 11.079L7.60805 11.0084L7.53728 11.079C7.66231 11.2043 7.81873 11.2667 7.99972 11.2667C8.18066 11.2667 8.33712 11.2044 8.46233 11.0795L8.39169 11.0087L8.46233 11.0794C8.58759 10.9544 8.65002 10.798 8.65002 10.617C8.65002 10.4361 8.58774 10.2796 8.46276 10.1544L8.39199 10.225L8.46276 10.1544C8.33773 10.0291 8.18131 9.96671 8.00032 9.96671C7.81939 9.96671 7.66292 10.029 7.53771 10.154ZM2.56669 13.1667V13.2667H2.66669H13.3334H13.4334V13.1667V12.1667V12.0667H13.3334H12.05V7.06671C12.05 6.11002 11.7653 5.25753 11.1961 4.51286C10.6424 3.78842 9.92025 3.32335 9.03335 3.11963V2.71671C9.03335 2.43398 8.93053 2.19566 8.72562 2.00938C8.52305 1.82522 8.278 1.73337 7.9961 1.73337C7.71419 1.73337 7.47015 1.82525 7.26998 2.00986C7.06783 2.19629 6.96669 2.43447 6.96669 2.71671V3.11963C6.07987 3.32337 5.36036 3.78853 4.81195 4.51325C4.24844 5.25791 3.96669 6.11027 3.96669 7.06671V12.0667H2.66669H2.56669V12.1667V13.1667ZM6.66669 13.7334H6.56669V13.8334C6.56669 14.2275 6.71123 14.5669 6.99672 14.8465C7.28105 15.1249 7.6169 15.2667 8.00002 15.2667C8.39342 15.2667 8.73268 15.1255 9.0124 14.8458C9.29211 14.566 9.43335 14.2268 9.43335 13.8334V13.7334H9.33335H6.66669ZM10.85 12.0667H5.16669V7.06671C5.16669 6.27051 5.44262 5.5959 5.99607 5.03708C6.54928 4.4785 7.22082 4.20004 8.01669 4.20004C8.81253 4.20004 9.4811 4.47847 10.0286 5.03673C10.5766 5.59548 10.85 6.2702 10.85 7.06671V12.0667Z" fill="#118AB2" stroke="#118AB2" stroke-width="0.2"/>
</svg>
