<svg width="15" height="14" viewBox="0 0 15 14" fill="none" xmlns="http://www.w3.org/2000/svg">
<path d="M7.49279 10.1208C8.19765 10.1208 8.78828 9.88264 9.26466 9.40625C9.74105 8.92986 9.97925 8.33924 9.97925 7.63438C9.97925 6.92951 9.74105 6.34132 9.26466 5.86979C8.78828 5.39826 8.19765 5.1625 7.49279 5.1625C6.78793 5.1625 6.19973 5.39826 5.72821 5.86979C5.25668 6.34132 5.02091 6.92951 5.02091 7.63438C5.02091 8.33924 5.25668 8.92986 5.72821 9.40625C6.19973 9.88264 6.78793 10.1208 7.49279 10.1208ZM7.49279 9.24583C7.03098 9.24583 6.64939 9.09271 6.348 8.78646C6.04661 8.48021 5.89591 8.09618 5.89591 7.63438C5.89591 7.17257 6.04661 6.79097 6.348 6.48958C6.64939 6.18819 7.03098 6.0375 7.49279 6.0375C7.9546 6.0375 8.33862 6.18819 8.64487 6.48958C8.95112 6.79097 9.10425 7.17257 9.10425 7.63438C9.10425 8.09618 8.95112 8.48021 8.64487 8.78646C8.33862 9.09271 7.9546 9.24583 7.49279 9.24583ZM2.54175 12.25C2.30841 12.25 2.10425 12.1625 1.92925 11.9875C1.75425 11.8125 1.66675 11.6083 1.66675 11.375V3.89375C1.66675 3.67014 1.75425 3.4684 1.92925 3.28854C2.10425 3.10868 2.30841 3.01875 2.54175 3.01875H4.6855L5.75008 1.75H9.25008L10.3147 3.01875H12.4584C12.682 3.01875 12.8838 3.10868 13.0636 3.28854C13.2435 3.4684 13.3334 3.67014 13.3334 3.89375V11.375C13.3334 11.6083 13.2435 11.8125 13.0636 11.9875C12.8838 12.1625 12.682 12.25 12.4584 12.25H2.54175ZM12.4584 11.375V3.89375H9.90633L8.84175 2.625H6.15841L5.09383 3.89375H2.54175V11.375H12.4584Z" fill="white"/>
</svg>
