<svg xmlns="http://www.w3.org/2000/svg" width="28" height="28" viewBox="0 0 28 28" fill="none">
<path d="M2.9165 24.5C2.44984 24.5 2.0415 24.325 1.6915 23.975C1.3415 23.625 1.1665 23.2167 1.1665 22.75V7.78752C1.1665 7.3403 1.3415 6.93683 1.6915 6.57711C2.0415 6.21739 2.44984 6.03752 2.9165 6.03752H7.204L9.33317 3.50002H17.3248V5.25002H10.1498L8.02067 7.78752H2.9165V22.75H22.7498V10.675H24.4998V22.75C24.4998 23.2167 24.32 23.625 23.9603 23.975C23.6005 24.325 23.1971 24.5 22.7498 24.5H2.9165ZM22.7498 7.75836V5.25002H20.2415V3.50002H22.7498V0.962524H24.4998V3.50002H27.0373V5.25002H24.4998V7.75836H22.7498ZM12.8186 20.2125C14.2283 20.2125 15.4096 19.7361 16.3623 18.7834C17.3151 17.8306 17.7915 16.6493 17.7915 15.2396C17.7915 13.8299 17.3151 12.6535 16.3623 11.7104C15.4096 10.7674 14.2283 10.2959 12.8186 10.2959C11.4089 10.2959 10.2325 10.7674 9.28942 11.7104C8.34637 12.6535 7.87484 13.8299 7.87484 15.2396C7.87484 16.6493 8.34637 17.8306 9.28942 18.7834C10.2325 19.7361 11.4089 20.2125 12.8186 20.2125ZM12.8186 18.4625C11.895 18.4625 11.1318 18.1563 10.529 17.5438C9.92623 16.9313 9.62484 16.1632 9.62484 15.2396C9.62484 14.316 9.92623 13.5528 10.529 12.95C11.1318 12.3472 11.895 12.0459 12.8186 12.0459C13.7422 12.0459 14.5103 12.3472 15.1228 12.95C15.7353 13.5528 16.0415 14.316 16.0415 15.2396C16.0415 16.1632 15.7353 16.9313 15.1228 17.5438C14.5103 18.1563 13.7422 18.4625 12.8186 18.4625Z" fill="#4A4A4A"/>
</svg>