<svg xmlns="http://www.w3.org/2000/svg" width="14" height="14" viewBox="0 0 14 14" fill="none">
<path d="M6.9927 10.1208C7.69756 10.1208 8.28818 9.88264 8.76457 9.40625C9.24096 8.92986 9.47916 8.33924 9.47916 7.63438C9.47916 6.92951 9.24096 6.34132 8.76457 5.86979C8.28818 5.39826 7.69756 5.1625 6.9927 5.1625C6.28784 5.1625 5.69964 5.39826 5.22811 5.86979C4.75659 6.34132 4.52082 6.92951 4.52082 7.63438C4.52082 8.33924 4.75659 8.92986 5.22811 9.40625C5.69964 9.88264 6.28784 10.1208 6.9927 10.1208ZM6.9927 9.24583C6.53089 9.24583 6.14929 9.09271 5.84791 8.78646C5.54652 8.48021 5.39582 8.09618 5.39582 7.63438C5.39582 7.17257 5.54652 6.79097 5.84791 6.48958C6.14929 6.18819 6.53089 6.0375 6.9927 6.0375C7.4545 6.0375 7.83853 6.18819 8.14478 6.48958C8.45103 6.79097 8.60416 7.17257 8.60416 7.63438C8.60416 8.09618 8.45103 8.48021 8.14478 8.78646C7.83853 9.09271 7.4545 9.24583 6.9927 9.24583ZM2.04166 12.25C1.80832 12.25 1.60416 12.1625 1.42916 11.9875C1.25416 11.8125 1.16666 11.6083 1.16666 11.375V3.89375C1.16666 3.67014 1.25416 3.4684 1.42916 3.28854C1.60416 3.10868 1.80832 3.01875 2.04166 3.01875H4.18541L5.24999 1.75H8.74999L9.81457 3.01875H11.9583C12.1819 3.01875 12.3837 3.10868 12.5635 3.28854C12.7434 3.4684 12.8333 3.67014 12.8333 3.89375V11.375C12.8333 11.6083 12.7434 11.8125 12.5635 11.9875C12.3837 12.1625 12.1819 12.25 11.9583 12.25H2.04166ZM11.9583 11.375V3.89375H9.40624L8.34166 2.625H5.65832L4.59374 3.89375H2.04166V11.375H11.9583Z" fill="#118AB2"/>
</svg>