<svg xmlns="http://www.w3.org/2000/svg" width="20" height="20" viewBox="0 0 20 20" fill="none">
<path d="M16.1043 6.375V4.58333H14.3127V3.33333H16.1043V1.52083H17.3543V3.33333H19.1668V4.58333H17.3543V6.375H16.1043ZM1.9585 18.3333C1.62516 18.3333 1.3335 18.2083 1.0835 17.9583C0.833496 17.7083 0.708496 17.4167 0.708496 17.0833V6.39583C0.708496 6.07638 0.833496 5.78819 1.0835 5.53125C1.3335 5.2743 1.62516 5.14583 1.9585 5.14583H5.021L6.54183 3.33333H12.3752V4.58333H7.12516L5.60433 6.39583H1.9585V17.0833H16.1252V8.33333H17.3752V17.0833C17.3752 17.4167 17.2467 17.7083 16.9897 17.9583C16.7328 18.2083 16.4446 18.3333 16.1252 18.3333H1.9585ZM9.03141 15.2917C10.0384 15.2917 10.8821 14.9514 11.5627 14.2708C12.2432 13.5903 12.5835 12.7465 12.5835 11.7396C12.5835 10.7326 12.2432 9.89236 11.5627 9.21875C10.8821 8.54513 10.0384 8.20833 9.03141 8.20833C8.02447 8.20833 7.18419 8.54513 6.51058 9.21875C5.83697 9.89236 5.50016 10.7326 5.50016 11.7396C5.50016 12.7465 5.83697 13.5903 6.51058 14.2708C7.18419 14.9514 8.02447 15.2917 9.03141 15.2917ZM9.03141 14.0417C8.37169 14.0417 7.82655 13.8229 7.396 13.3854C6.96544 12.9479 6.75016 12.3993 6.75016 11.7396C6.75016 11.0799 6.96544 10.5347 7.396 10.1042C7.82655 9.67361 8.37169 9.45833 9.03141 9.45833C9.69113 9.45833 10.2397 9.67361 10.6772 10.1042C11.1147 10.5347 11.3335 11.0799 11.3335 11.7396C11.3335 12.3993 11.1147 12.9479 10.6772 13.3854C10.2397 13.8229 9.69113 14.0417 9.03141 14.0417Z" fill="#4A4A4A" stroke="#4A4A4A" stroke-width="0.5"/>
</svg>