<svg width="14" height="14" viewBox="0 0 14 14" fill="none" xmlns="http://www.w3.org/2000/svg">
<path d="M6.99267 10.1208C7.69753 10.1208 8.28815 9.88264 8.76454 9.40625C9.24093 8.92986 9.47913 8.33924 9.47913 7.63438C9.47913 6.92951 9.24093 6.34132 8.76454 5.86979C8.28815 5.39826 7.69753 5.1625 6.99267 5.1625C6.28781 5.1625 5.69961 5.39826 5.22808 5.86979C4.75656 6.34132 4.52079 6.92951 4.52079 7.63438C4.52079 8.33924 4.75656 8.92986 5.22808 9.40625C5.69961 9.88264 6.28781 10.1208 6.99267 10.1208ZM6.99267 9.24583C6.53086 9.24583 6.14926 9.09271 5.84788 8.78646C5.54649 8.48021 5.39579 8.09618 5.39579 7.63438C5.39579 7.17257 5.54649 6.79097 5.84788 6.48958C6.14926 6.18819 6.53086 6.0375 6.99267 6.0375C7.45447 6.0375 7.8385 6.18819 8.14475 6.48958C8.451 6.79097 8.60413 7.17257 8.60413 7.63438C8.60413 8.09618 8.451 8.48021 8.14475 8.78646C7.8385 9.09271 7.45447 9.24583 6.99267 9.24583ZM2.04163 12.25C1.80829 12.25 1.60413 12.1625 1.42913 11.9875C1.25413 11.8125 1.16663 11.6083 1.16663 11.375V3.89375C1.16663 3.67014 1.25413 3.4684 1.42913 3.28854C1.60413 3.10868 1.80829 3.01875 2.04163 3.01875H4.18538L5.24996 1.75H8.74996L9.81454 3.01875H11.9583C12.1819 3.01875 12.3836 3.10868 12.5635 3.28854C12.7434 3.4684 12.8333 3.67014 12.8333 3.89375V11.375C12.8333 11.6083 12.7434 11.8125 12.5635 11.9875C12.3836 12.1625 12.1819 12.25 11.9583 12.25H2.04163ZM11.9583 11.375V3.89375H9.40621L8.34163 2.625H5.65829L4.59371 3.89375H2.04163V11.375H11.9583Z" fill="white"/>
</svg>
