<svg xmlns="http://www.w3.org/2000/svg" width="28" height="28" viewBox="0 0 28 28" fill="none">
<path d="M7.02917 6.47077H7.04066L7.04815 6.46204L9.49066 3.61244H16.95V8.10827V8.13327H16.975H20.6542V12.1916V12.2166H20.6792H25.2042V23.6541C25.2042 24.4066 24.9321 25.0469 24.3872 25.5765C23.8421 26.1063 23.1995 26.3708 22.4583 26.3708H3.17917C2.42645 26.3708 1.78605 26.1063 1.25653 25.5767C0.72701 25.0472 0.4625 24.4068 0.4625 23.6541V9.2166C0.4625 8.4754 0.726955 7.83282 1.25678 7.2877C1.78636 6.74282 2.42669 6.47077 3.17917 6.47077H7.02917ZM24.5042 6.35827V9.07493H22.4542V6.35827V6.33327H22.4292H19.7125V4.26869H22.4292H22.4542V4.24369V1.5416H24.5042V4.24369V4.26869H24.5292H27.275V6.33327H24.5292H24.5042V6.35827ZM12.8333 21.4333C14.2397 21.4333 15.4225 20.9544 16.3802 19.9968C17.3378 19.0391 17.8167 17.8563 17.8167 16.4499C17.8167 15.0243 17.3379 13.8365 16.3801 12.8884C15.4224 11.9405 14.2396 11.4666 12.8333 11.4666C11.4077 11.4666 10.22 11.9404 9.27191 12.8885C8.32384 13.8366 7.85 15.0243 7.85 16.4499C7.85 17.8562 8.3239 19.039 9.27182 19.9967C10.2199 20.9545 11.4076 21.4333 12.8333 21.4333ZM12.8333 19.6333C11.9061 19.6333 11.1446 19.3293 10.547 18.722C9.94912 18.1145 9.65 17.3577 9.65 16.4499C9.65 15.5225 9.94922 14.7611 10.5468 14.1634C11.1445 13.5658 11.9059 13.2666 12.8333 13.2666C13.7411 13.2666 14.4979 13.5657 15.1054 14.1636C15.7127 14.7612 16.0167 15.5227 16.0167 16.4499C16.0167 17.3576 15.7128 18.1143 15.1052 18.7218C14.4977 19.3294 13.741 19.6333 12.8333 19.6333Z" fill="white" stroke="white" stroke-width="0.05"/>
</svg>