<svg xmlns="http://www.w3.org/2000/svg" width="15" height="15" viewBox="0 0 15 15" fill="none">
<path d="M11 4H4C3.4477 4 3 3.5523 3 3V0.5C3 0.2239 3.2239 0 3.5 0C3.7761 0 4 0.2239 4 0.5V2H5V1C5 0.4477 5.4477 0 6 0C6.5523 0 7 0.4477 7 1V2H8V1C8 0.4477 8.4477 0 9 0C9.5523 0 10 0.4477 10 1V2H11V0.5C11 0.2239 11.2239 0 11.5 0C11.7761 0 12 0.2239 12 0.5V3C12 3.5523 11.5523 4 11 4ZM14 14.5C14 14.7761 13.7761 15 13.5 15H1.5C1.2239 15 1 14.7761 1 14.5C1 14.2239 1.2239 14 1.5 14H2C2.5523 14 3 13.5523 3 13C3 13 4 7 4 6C4 5.4477 4.4477 5 5 5H10C10.5523 5 11 5.4477 11 6C11 7 12 13 12 13C12 13.5523 12.4477 14 13 14H13.5C13.7723 13.9999 13.9946 14.2178 14 14.49V14.5ZM9 10.5C9 9.6716 8.3284 9 7.5 9C6.6716 9 6 9.6716 6 10.5V14H9V10.5Z" fill="#118AB2"/>
</svg>