<svg width="24" height="24" viewBox="0 0 24 24" fill="none" xmlns="http://www.w3.org/2000/svg">
<rect width="24" height="24" rx="5" fill="#CF4130"/>
<path d="M11.5734 11.1467V15.7973C9.65335 15.584 8.16002 13.9626 8.16002 12C8.16002 10.848 8.67201 9.78133 9.52536 9.09864L11.5734 11.1467Z" fill="white"/>
<path d="M15.84 12C15.84 13.9626 14.3467 15.6266 12.4267 15.7973V11.1467L14.4747 9.09864C15.328 9.78133 15.84 10.848 15.84 12Z" fill="white"/>
<path d="M16.3093 7.26399L15.1147 8.45862C16.096 9.31197 16.6933 10.592 16.6933 12C16.6933 14.6026 14.6027 16.6933 12 16.6933C9.39733 16.6933 7.30667 14.6026 7.30667 12C7.30667 10.592 7.94668 9.35464 8.88535 8.45862L7.69067 7.26399C6.41068 8.45862 5.60001 10.1226 5.60001 12C5.60001 15.5413 8.45867 18.3999 12 18.3999C15.5413 18.3999 18.4 15.5413 18.4 12C18.4 10.1226 17.5894 8.45862 16.3093 7.26399Z" fill="white"/>
<path d="M12 9.86663C13.1782 9.86663 14.1333 8.9115 14.1333 7.7333C14.1333 6.55511 13.1782 5.59998 12 5.59998C10.8218 5.59998 9.86664 6.55511 9.86664 7.7333C9.86664 8.9115 10.8218 9.86663 12 9.86663Z" fill="white"/>
</svg>
