<svg width="58" height="49" viewBox="0 0 58 49" fill="none" xmlns="http://www.w3.org/2000/svg">
<g filter="url(#filter0_d_1975_32124)">
<path d="M18.6875 28.875C18.1375 28.875 17.6562 28.6688 17.2438 28.2563C16.8313 27.8438 16.625 27.3625 16.625 26.8125V6.1875C16.625 5.6375 16.8313 5.15625 17.2438 4.74375C17.6562 4.33125 18.1375 4.125 18.6875 4.125H39.3125C39.8625 4.125 40.3438 4.33125 40.7563 4.74375C41.1688 5.15625 41.375 5.6375 41.375 6.1875V26.8125C41.375 27.3625 41.1688 27.8438 40.7563 28.2563C40.3438 28.6688 39.8625 28.875 39.3125 28.875H18.6875ZM18.6875 26.8125H39.3125V6.1875H18.6875V26.8125ZM20.6125 23.4781H37.4219L32.3688 16.7406L27.8313 22.6187L24.6344 18.2531L20.6125 23.4781Z" fill="white"/>
</g>
<path d="M4.49023 46.123C3.63477 46.123 2.91992 45.9355 2.3457 45.5605C1.77539 45.1855 1.3457 44.6719 1.05664 44.0195C0.771484 43.3672 0.628906 42.627 0.628906 41.7988V41.6758C0.628906 40.8398 0.779297 40.0977 1.08008 39.4492C1.38086 38.7969 1.8125 38.2832 2.375 37.9082C2.9375 37.5332 3.60938 37.3457 4.39062 37.3457C4.94141 37.3457 5.44531 37.4316 5.90234 37.6035C6.35938 37.7754 6.73828 37.9941 7.03906 38.2598V40.0996H6.11914L5.99609 38.752C5.87109 38.6543 5.72656 38.5723 5.5625 38.5059C5.40234 38.4395 5.22266 38.3887 5.02344 38.3535C4.82812 38.3184 4.61523 38.3008 4.38477 38.3008C3.82617 38.3008 3.35352 38.4453 2.9668 38.7344C2.58008 39.0195 2.28711 39.4141 2.08789 39.918C1.88867 40.4219 1.78906 41.0039 1.78906 41.6641V41.7988C1.78906 42.5137 1.89453 43.125 2.10547 43.6328C2.32031 44.1367 2.63086 44.5215 3.03711 44.7871C3.44727 45.0527 3.94531 45.1855 4.53125 45.1855C4.80469 45.1855 5.07227 45.1523 5.33398 45.0859C5.5957 45.0195 5.8125 44.9336 5.98438 44.8281L6.11328 43.6387H7.01562V45.4902C6.69531 45.6895 6.3125 45.8457 5.86719 45.959C5.42188 46.0684 4.96289 46.123 4.49023 46.123ZM11.0176 46.123C10.4316 46.123 9.92578 45.9863 9.5 45.7129C9.07812 45.4355 8.75195 45.0547 8.52148 44.5703C8.29102 44.082 8.17578 43.5254 8.17578 42.9004V42.7715C8.17578 42.1465 8.29102 41.5918 8.52148 41.1074C8.75195 40.6191 9.07812 40.2363 9.5 39.959C9.92578 39.6816 10.4277 39.543 11.0059 39.543C11.5918 39.543 12.0957 39.6816 12.5176 39.959C12.9434 40.2363 13.2715 40.6172 13.502 41.1016C13.7324 41.5859 13.8477 42.1426 13.8477 42.7715V42.9004C13.8477 43.5293 13.7324 44.0879 13.502 44.5762C13.2715 45.0605 12.9453 45.4395 12.5234 45.7129C12.1016 45.9863 11.5996 46.123 11.0176 46.123ZM11.0176 45.2207C11.3848 45.2207 11.6914 45.1211 11.9375 44.9219C12.1875 44.7188 12.375 44.4434 12.5 44.0957C12.6289 43.7441 12.6934 43.3457 12.6934 42.9004V42.7715C12.6934 42.3262 12.6289 41.9297 12.5 41.582C12.375 41.2305 12.1875 40.9551 11.9375 40.7559C11.6875 40.5527 11.377 40.4512 11.0059 40.4512C10.6387 40.4512 10.3301 40.5527 10.0801 40.7559C9.83008 40.9551 9.64258 41.2305 9.51758 41.582C9.39258 41.9297 9.33008 42.3262 9.33008 42.7715V42.9004C9.33008 43.3457 9.39258 43.7441 9.51758 44.0957C9.64258 44.4434 9.83008 44.7188 10.0801 44.9219C10.334 45.1211 10.6465 45.2207 11.0176 45.2207ZM14.7383 46V45.2617L15.6934 45.0977V40.5684L14.7383 40.4043V39.6602H16.7305L16.8066 40.4863C17.0098 40.1855 17.2715 39.9531 17.5918 39.7891C17.9121 39.625 18.2832 39.543 18.7051 39.543C19.127 39.543 19.4883 39.6406 19.7891 39.8359C20.0938 40.0312 20.3223 40.3242 20.4746 40.7148C20.6738 40.3555 20.9375 40.0703 21.2656 39.8594C21.5938 39.6484 21.9766 39.543 22.4141 39.543C23.0625 39.543 23.5742 39.7656 23.9492 40.2109C24.3242 40.6523 24.5117 41.3184 24.5117 42.209V45.0977L25.4668 45.2617V46H22.3965V45.2617L23.3516 45.0977V42.1973C23.3516 41.5723 23.2441 41.1309 23.0293 40.873C22.8145 40.6113 22.4961 40.4805 22.0742 40.4805C21.6719 40.4805 21.3477 40.623 21.1016 40.9082C20.8594 41.1895 20.7188 41.5449 20.6797 41.9746V45.0977L21.6348 45.2617V46H18.5703V45.2617L19.5254 45.0977V42.1973C19.5254 41.6035 19.4141 41.1699 19.1914 40.8965C18.9727 40.6191 18.6543 40.4805 18.2363 40.4805C17.8848 40.4805 17.5957 40.5527 17.3691 40.6973C17.1426 40.8418 16.9688 41.0449 16.8477 41.3066V45.0977L17.8027 45.2617V46H14.7383ZM26.3281 46V45.2617L27.2832 45.0977V40.5684L26.3281 40.4043V39.6602H28.3203L28.3965 40.4863C28.5996 40.1855 28.8613 39.9531 29.1816 39.7891C29.502 39.625 29.873 39.543 30.2949 39.543C30.7168 39.543 31.0781 39.6406 31.3789 39.8359C31.6836 40.0312 31.9121 40.3242 32.0645 40.7148C32.2637 40.3555 32.5273 40.0703 32.8555 39.8594C33.1836 39.6484 33.5664 39.543 34.0039 39.543C34.6523 39.543 35.1641 39.7656 35.5391 40.2109C35.9141 40.6523 36.1016 41.3184 36.1016 42.209V45.0977L37.0566 45.2617V46H33.9863V45.2617L34.9414 45.0977V42.1973C34.9414 41.5723 34.834 41.1309 34.6191 40.873C34.4043 40.6113 34.0859 40.4805 33.6641 40.4805C33.2617 40.4805 32.9375 40.623 32.6914 40.9082C32.4492 41.1895 32.3086 41.5449 32.2695 41.9746V45.0977L33.2246 45.2617V46H30.1602V45.2617L31.1152 45.0977V42.1973C31.1152 41.6035 31.0039 41.1699 30.7812 40.8965C30.5625 40.6191 30.2441 40.4805 29.8262 40.4805C29.4746 40.4805 29.1855 40.5527 28.959 40.6973C28.7324 40.8418 28.5586 41.0449 28.4375 41.3066V45.0977L29.3926 45.2617V46H26.3281ZM40.6895 46.123C40.1035 46.123 39.5977 45.9863 39.1719 45.7129C38.75 45.4355 38.4238 45.0547 38.1934 44.5703C37.9629 44.082 37.8477 43.5254 37.8477 42.9004V42.7715C37.8477 42.1465 37.9629 41.5918 38.1934 41.1074C38.4238 40.6191 38.75 40.2363 39.1719 39.959C39.5977 39.6816 40.0996 39.543 40.6777 39.543C41.2637 39.543 41.7676 39.6816 42.1895 39.959C42.6152 40.2363 42.9434 40.6172 43.1738 41.1016C43.4043 41.5859 43.5195 42.1426 43.5195 42.7715V42.9004C43.5195 43.5293 43.4043 44.0879 43.1738 44.5762C42.9434 45.0605 42.6172 45.4395 42.1953 45.7129C41.7734 45.9863 41.2715 46.123 40.6895 46.123ZM40.6895 45.2207C41.0566 45.2207 41.3633 45.1211 41.6094 44.9219C41.8594 44.7188 42.0469 44.4434 42.1719 44.0957C42.3008 43.7441 42.3652 43.3457 42.3652 42.9004V42.7715C42.3652 42.3262 42.3008 41.9297 42.1719 41.582C42.0469 41.2305 41.8594 40.9551 41.6094 40.7559C41.3594 40.5527 41.0488 40.4512 40.6777 40.4512C40.3105 40.4512 40.002 40.5527 39.752 40.7559C39.502 40.9551 39.3145 41.2305 39.1895 41.582C39.0645 41.9297 39.002 42.3262 39.002 42.7715V42.9004C39.002 43.3457 39.0645 43.7441 39.1895 44.0957C39.3145 44.4434 39.502 44.7188 39.752 44.9219C40.0059 45.1211 40.3184 45.2207 40.6895 45.2207ZM44.4102 46V45.2617L45.3652 45.0977V40.5684L44.4102 40.4043V39.6602H46.3965L46.4785 40.6035C46.6895 40.2676 46.9531 40.0078 47.2695 39.8242C47.5898 39.6367 47.9531 39.543 48.3594 39.543C49.043 39.543 49.5723 39.7441 49.9473 40.1465C50.3223 40.5449 50.5098 41.1621 50.5098 41.998V45.0977L51.4648 45.2617V46H48.4004V45.2617L49.3555 45.0977V42.0215C49.3555 41.4629 49.2441 41.0664 49.0215 40.832C48.8027 40.5977 48.4668 40.4805 48.0137 40.4805C47.6816 40.4805 47.3867 40.5605 47.1289 40.7207C46.875 40.8809 46.6719 41.0996 46.5195 41.377V45.0977L47.4746 45.2617V46H44.4102ZM54.8516 46.123C54.4258 46.123 54.0273 46.0801 53.6562 45.9941C53.2852 45.9082 52.8906 45.7754 52.4727 45.5957L52.4609 44.0898H53.334L53.5508 44.998C53.7695 45.0879 53.9805 45.1543 54.1836 45.1973C54.3906 45.2363 54.6133 45.2559 54.8516 45.2559C55.3203 45.2559 55.6562 45.166 55.8594 44.9863C56.0625 44.8066 56.1641 44.584 56.1641 44.3184C56.1641 44.0684 56.0605 43.8574 55.8535 43.6855C55.6504 43.5098 55.2793 43.3613 54.7402 43.2402C53.9746 43.0645 53.4102 42.8301 53.0469 42.5371C52.6875 42.2402 52.5078 41.8457 52.5078 41.3535C52.5078 41.0098 52.6074 40.7031 52.8066 40.4336C53.0059 40.1602 53.2832 39.9434 53.6387 39.7832C53.9941 39.623 54.4082 39.543 54.8809 39.543C55.3613 39.543 55.7715 39.5977 56.1113 39.707C56.4551 39.8164 56.7539 39.9629 57.0078 40.1465L57.0664 41.5938H56.1992L56.0117 40.75C55.875 40.6484 55.7129 40.5703 55.5254 40.5156C55.3379 40.4609 55.123 40.4336 54.8809 40.4336C54.5215 40.4336 54.2285 40.5176 54.002 40.6855C53.7793 40.8535 53.668 41.0645 53.668 41.3184C53.668 41.4668 53.6992 41.5957 53.7617 41.7051C53.8281 41.8145 53.9531 41.9141 54.1367 42.0039C54.3203 42.0898 54.5898 42.1758 54.9453 42.2617C55.8281 42.4688 56.4434 42.7324 56.791 43.0527C57.1426 43.373 57.3184 43.7676 57.3184 44.2363C57.3184 44.7715 57.1191 45.2207 56.7207 45.584C56.3262 45.9434 55.7031 46.123 54.8516 46.123Z" fill="white"/>
<defs>
<filter id="filter0_d_1975_32124" x="12.5" y="0" width="34" height="34" filterUnits="userSpaceOnUse" color-interpolation-filters="sRGB">
<feFlood flood-opacity="0" result="BackgroundImageFix"/>
<feColorMatrix in="SourceAlpha" type="matrix" values="0 0 0 0 0 0 0 0 0 0 0 0 0 0 0 0 0 0 127 0" result="hardAlpha"/>
<feOffset dx="1" dy="1"/>
<feComposite in2="hardAlpha" operator="out"/>
<feColorMatrix type="matrix" values="0 0 0 0 0.0666667 0 0 0 0 0.541176 0 0 0 0 0.698039 0 0 0 0.23 0"/>
<feBlend mode="normal" in2="BackgroundImageFix" result="effect1_dropShadow_1975_32124"/>
<feBlend mode="normal" in="SourceGraphic" in2="effect1_dropShadow_1975_32124" result="shape"/>
</filter>
</defs>
</svg>
