<svg xmlns="http://www.w3.org/2000/svg" width="20" height="20" viewBox="0 0 20 20" fill="none">
<path d="M9.99902 18.3958C9.83306 18.3958 9.67022 18.368 9.5105 18.3125C9.35078 18.2569 9.21536 18.1736 9.10425 18.0625L1.93758 10.8958C1.82647 10.7847 1.74314 10.6489 1.68758 10.4885C1.63203 10.3281 1.60425 10.1649 1.60425 9.99893C1.60425 9.83297 1.63203 9.67013 1.68758 9.51041C1.74314 9.35068 1.82647 9.21527 1.93758 9.10416L9.10425 1.93749C9.21536 1.82638 9.35113 1.74305 9.51156 1.68749C9.67199 1.63193 9.83519 1.60416 10.0011 1.60416C10.1671 1.60416 10.3299 1.63193 10.4897 1.68749C10.6494 1.74305 10.7848 1.82638 10.8959 1.93749L18.0626 9.10416C18.1737 9.21527 18.257 9.35104 18.3126 9.51147C18.3681 9.6719 18.3959 9.83509 18.3959 10.0011C18.3959 10.167 18.3681 10.3299 18.3126 10.4896C18.257 10.6493 18.1737 10.7847 18.0626 10.8958L10.8959 18.0625C10.7848 18.1736 10.649 18.2569 10.4886 18.3125C10.3282 18.368 10.165 18.3958 9.99902 18.3958ZM6.41675 13.5833L10.0001 17.1667L17.1667 9.99999L10.0001 2.83332L2.83341 9.99999L6.41675 13.5833ZM10.0001 14.1042L14.1042 9.99999L10.0001 5.89582L9.10425 6.79166L11.6876 9.37499H5.89591V10.625H11.6876L9.10425 13.2083L10.0001 14.1042Z" fill="white"/>
</svg>