<svg xmlns="http://www.w3.org/2000/svg" width="23" height="23" viewBox="0 0 23 23" fill="none">
<path d="M10.6582 3.69946C8.95058 3.69946 7.62091 5.63097 7.10304 6.24682C7.00017 6.37307 6.94558 6.53193 6.94908 6.69471V12.8532C6.93284 13.1929 7.19514 13.4815 7.53483 13.4977C7.68809 13.505 7.83856 13.4549 7.95683 13.357C8.60976 12.4803 9.57888 11.8929 10.6582 11.7195C12.6317 11.7195 13.3875 13.497 15.445 13.497C16.8373 13.3604 18.1624 12.8313 19.266 11.9714C19.444 11.8407 19.5482 11.6324 19.5459 11.4115V4.3293C19.5844 3.99142 19.3417 3.68616 19.0037 3.64767C18.8926 3.63507 18.7799 3.65299 18.6782 3.69946C17.7246 4.42895 16.6198 4.93591 15.445 5.18309C13.3875 5.21108 12.7156 3.69946 10.6582 3.69946ZM4.8496 5.09911C4.07657 5.09911 3.44995 4.47248 3.44995 3.69946C3.44995 2.92643 4.07657 2.2998 4.8496 2.2998C5.62263 2.2998 6.24925 2.92643 6.24925 3.69946C6.24925 4.47248 5.62263 5.09911 4.8496 5.09911ZM5.54943 6.49876V19.7674C5.54943 20.1539 5.23605 20.4673 4.8496 20.4673C4.46316 20.4673 4.14978 20.1539 4.14978 19.7674V6.49876C4.14978 6.11231 4.46316 5.79893 4.8496 5.79893C5.23605 5.79893 5.54943 6.11231 5.54943 6.49876Z" fill="#118AB2"/>
</svg>