<svg width="21" height="20" viewBox="0 0 21 20" fill="none" xmlns="http://www.w3.org/2000/svg">
<path d="M9.93746 14.1667H11.1875V9.16675H9.93746V14.1667ZM10.4996 7.62508C10.6943 7.62508 10.8576 7.56119 10.9895 7.43341C11.1215 7.30564 11.1875 7.1473 11.1875 6.95841C11.1875 6.75772 11.1216 6.58949 10.9899 6.45373C10.8582 6.31796 10.695 6.25008 10.5003 6.25008C10.3056 6.25008 10.1423 6.31796 10.0104 6.45373C9.87843 6.58949 9.81246 6.75772 9.81246 6.95841C9.81246 7.1473 9.87831 7.30564 10.01 7.43341C10.1417 7.56119 10.3049 7.62508 10.4996 7.62508ZM10.5055 18.3334C9.35642 18.3334 8.27656 18.1147 7.26592 17.6772C6.25528 17.2397 5.37149 16.6424 4.61454 15.8855C3.8576 15.1286 3.26038 14.2442 2.82288 13.2326C2.38538 12.2209 2.16663 11.1399 2.16663 9.98966C2.16663 8.8394 2.38538 7.75844 2.82288 6.74677C3.26038 5.73509 3.8576 4.85425 4.61454 4.10425C5.37149 3.35425 6.2558 2.7605 7.26748 2.323C8.27915 1.8855 9.36011 1.66675 10.5104 1.66675C11.6606 1.66675 12.7416 1.8855 13.7533 2.323C14.765 2.7605 15.6458 3.35425 16.3958 4.10425C17.1458 4.85425 17.7395 5.73619 18.177 6.75008C18.6145 7.76397 18.8333 8.84546 18.8333 9.99454C18.8333 11.1436 18.6145 12.2235 18.177 13.2341C17.7395 14.2448 17.1458 15.1273 16.3958 15.8817C15.6458 16.6361 14.7638 17.2333 13.75 17.6733C12.7361 18.1134 11.6546 18.3334 10.5055 18.3334ZM10.5104 17.0834C12.4757 17.0834 14.1458 16.3924 15.5208 15.0105C16.8958 13.6286 17.5833 11.9549 17.5833 9.98966C17.5833 8.02439 16.8971 6.35425 15.5247 4.97925C14.1523 3.60425 12.4774 2.91675 10.5 2.91675C8.54163 2.91675 6.87149 3.60294 5.48954 4.97533C4.1076 6.34773 3.41663 8.02265 3.41663 10.0001C3.41663 11.9584 4.1076 13.6286 5.48954 15.0105C6.87149 16.3924 8.5451 17.0834 10.5104 17.0834Z" fill="#118AB2"/>
</svg>
