<svg xmlns="http://www.w3.org/2000/svg" width="22" height="24" viewBox="0 0 22 24" fill="none">
<path d="M15.0419 23.8783C14.9687 23.8053 14.8056 23.7645 14.5033 23.7436C14.0701 23.7137 14.0695 23.7134 13.9479 23.4793C13.7953 23.1856 13.4686 23.0091 13.0173 22.9766C12.7137 22.9547 12.6664 22.9322 12.5405 22.7491C12.4185 22.5717 12.3681 22.5458 12.1452 22.5458C11.9176 22.5458 11.8816 22.5261 11.8144 22.3646C11.7293 22.1599 11.4628 21.9469 11.2919 21.9469C11.2292 21.9469 11.147 21.916 11.1091 21.8783C11.0575 21.8269 10.9973 21.8275 10.8679 21.881C10.7089 21.9466 10.6783 21.936 10.4766 21.7466C10.1787 21.4666 10.1435 21.2878 10.3148 20.9235C10.3908 20.7617 10.4888 20.6293 10.5325 20.6293C10.5761 20.6293 10.6456 20.5754 10.6869 20.5095C10.7881 20.3481 10.8256 20.358 10.9134 20.5694C11.0116 20.8055 11.1992 20.8093 11.2805 20.5768C11.3286 20.4393 11.3855 20.3983 11.5629 20.3731C11.6851 20.3558 11.8287 20.324 11.882 20.3025C11.9553 20.273 11.9881 20.3083 12.0158 20.4463C12.0471 20.6024 12.0795 20.6293 12.2362 20.6293C12.3373 20.6293 12.4339 20.6654 12.4509 20.7096C12.4743 20.7703 12.6609 20.7911 13.2154 20.7948C13.9961 20.7999 14.0712 20.779 14.4137 20.4617C14.5575 20.3285 14.5971 20.3183 14.7321 20.3796C14.9719 20.4884 15.2023 20.4658 15.2907 20.3248C15.3371 20.2508 15.4057 20.2141 15.4592 20.2346C15.5089 20.2535 15.6303 20.2275 15.7291 20.1766C15.9465 20.0646 16.1712 20.114 16.1105 20.2604C16.0878 20.315 16.0547 20.4137 16.0369 20.4796C16.0191 20.5454 15.9546 20.6709 15.8935 20.7583C15.8324 20.8457 15.7824 20.9408 15.7824 20.9696C15.7824 20.9983 15.6983 21.0953 15.5956 21.1851C15.4463 21.3156 15.4165 21.3791 15.4472 21.501C15.474 21.6073 15.4486 21.7006 15.3635 21.8083C15.2086 22.0045 15.2079 22.1976 15.3616 22.3362C15.4885 22.4506 15.5231 22.6057 15.4217 22.6057C15.3146 22.6057 15.3581 22.7793 15.4818 22.8452C15.6588 22.9396 15.6398 23.1821 15.4518 23.2292C15.3124 23.264 15.3015 23.2928 15.3015 23.6249C15.3015 24.0093 15.2366 24.0726 15.0419 23.8783ZM16.2769 20.9485C16.1686 20.9051 16.2459 20.3534 16.3948 20.107C16.4838 19.9597 16.507 19.8275 16.4931 19.5477C16.4728 19.1388 16.5616 19.0122 16.8689 19.0122C17.0798 19.0122 17.1508 18.745 16.9882 18.5631C16.9293 18.4972 16.835 18.2546 16.7786 18.024C16.7063 17.7285 16.632 17.5695 16.5266 17.485C16.4143 17.3951 16.3504 17.2459 16.2699 16.886C16.1154 16.1952 15.9384 15.9669 15.7824 16.2573C15.747 16.3231 15.6852 16.3762 15.645 16.3751C15.5478 16.3724 15.3015 16.1647 15.3015 16.0854C15.3015 16.0508 15.1865 15.9899 15.046 15.9501C14.6988 15.8517 14.687 15.8346 14.7812 15.5648C14.8557 15.3515 14.8522 15.3054 14.7439 15.0826C14.628 14.8439 14.6175 14.8376 14.4069 14.8816C14.2873 14.9066 14.086 14.945 13.9596 14.9669L13.7297 15.0067L13.7492 14.7486L13.7687 14.4905L13.5088 14.4719C13.2931 14.4564 13.2367 14.4258 13.1778 14.2922C13.1387 14.2036 13.0017 13.9879 12.8733 13.8129C12.6452 13.502 12.6344 13.4955 12.4057 13.534C12.2742 13.5561 12.1396 13.547 12.0985 13.5132C12.0152 13.4446 11.6949 13.489 11.6949 13.5692C11.6949 13.5983 11.628 13.6221 11.5464 13.6221C11.4359 13.6221 11.3628 13.5606 11.2609 13.3816C11.1495 13.1864 11.0816 13.1343 10.899 13.1046C10.7133 13.0743 10.6166 12.9978 10.343 12.6646C10.1274 12.402 10.0118 12.206 10.0118 12.1032C10.0118 11.9995 9.9793 11.9451 9.9174 11.9451C9.74522 11.9451 9.29145 11.583 9.17247 11.3507C9.08748 11.1847 8.98592 11.0941 8.80275 11.0211C8.63093 10.9526 8.53755 10.9409 8.51058 10.9843C8.48262 11.0294 8.41464 11.0287 8.27959 10.9818C8.08329 10.9136 8.0301 10.7693 8.15527 10.6446C8.24394 10.5563 7.94652 10.1604 7.75561 10.1126C7.65839 10.0883 7.60772 10.0195 7.58049 9.87493C7.54928 9.70914 7.50644 9.66225 7.34934 9.62191C7.15768 9.57269 7.15632 9.56965 7.12645 9.12367C7.10748 8.84042 7.05761 8.61613 6.9912 8.51544C6.93335 8.42771 6.88601 8.26198 6.88601 8.14715C6.88601 7.81232 6.7671 7.35332 6.65391 7.25126C6.59645 7.19945 6.43273 7.11603 6.2901 7.06589C6.14747 7.01576 5.91889 6.90551 5.78215 6.8209C5.6454 6.73629 5.37035 6.56538 5.17093 6.4411C4.9715 6.31682 4.69791 6.19754 4.56295 6.17604C4.32608 6.1383 4.30733 6.14783 4.02256 6.45078C3.86031 6.62339 3.67281 6.83538 3.60589 6.92186C3.4098 7.17529 3.03343 7.33357 2.62688 7.33357H2.27015L2.31501 7.13542C2.33968 7.02643 2.40847 6.86335 2.46789 6.773C2.61168 6.55436 2.54962 6.50689 2.04736 6.45136L1.6305 6.40527L1.42988 5.92765C1.24982 5.49898 1.23911 5.44286 1.32535 5.38004C1.44309 5.29426 1.52392 4.87806 1.42284 4.87806C1.38491 4.87806 1.30887 4.784 1.25385 4.66905C1.19883 4.55409 1.1046 4.44447 1.04444 4.42545C0.965762 4.40057 0.935059 4.33124 0.935059 4.17848V3.9661L1.19998 4.00568C1.43226 4.04038 1.48376 4.02646 1.61802 3.8927C1.70224 3.80879 1.79942 3.74013 1.83399 3.74013C1.9871 3.74013 1.88781 3.36351 1.65021 3.04306L1.40359 2.71045L1.60189 2.50661C1.77389 2.32979 1.83894 2.30276 2.09239 2.30276C2.2531 2.30276 2.50636 2.27221 2.6552 2.23487C2.84505 2.18724 2.96668 2.18553 3.06275 2.22914C3.26742 2.32205 3.54156 2.12752 3.6326 1.82476C3.67208 1.69346 3.75753 1.55769 3.82249 1.52305C3.88744 1.48842 3.94059 1.40713 3.94059 1.3424C3.94059 1.20498 4.04444 1.19351 4.20333 1.3134C4.28931 1.37827 4.30734 1.44481 4.27989 1.59597C4.25384 1.73944 4.27548 1.83456 4.35877 1.94265L4.47355 2.0916L4.61669 1.95762C4.77797 1.80666 4.84752 1.79295 4.94737 1.89244C4.99936 1.94424 4.99563 2.0013 4.93223 2.12344C4.84038 2.30041 4.88628 2.60686 5.01083 2.64822C5.0602 2.66462 5.08269 2.57809 5.08269 2.37172C5.08269 2.10957 5.10457 2.05583 5.2547 1.94932C5.36585 1.87047 5.45368 1.7313 5.50295 1.55596C5.57073 1.31478 5.59837 1.28462 5.75172 1.28462C5.90987 1.28462 5.92424 1.30266 5.92424 1.50122C5.92424 1.69779 5.93675 1.71412 6.05949 1.67777C6.13387 1.65575 6.29519 1.62223 6.41797 1.6033C6.61638 1.57271 6.6492 1.58637 6.71314 1.72621C6.75271 1.81273 6.80328 1.88353 6.82553 1.88353C6.93772 1.88353 6.92436 1.7883 6.78212 1.57415L6.62507 1.33771L6.78109 1.18226C6.92372 1.04015 6.95266 1.03323 7.11832 1.10159C7.36731 1.20435 7.427 1.14641 7.427 0.801962V0.506044H7.6786C7.8532 0.506044 7.97223 0.545391 8.06756 0.634615C8.23429 0.790684 8.34651 0.725275 8.45047 0.411417C8.51346 0.221254 8.53649 0.206591 8.77213 0.206591C8.91173 0.206591 9.0569 0.237432 9.09474 0.275127C9.14638 0.326583 9.20932 0.324766 9.34725 0.267839C9.48258 0.211992 9.55215 0.209517 9.61132 0.258445C9.67271 0.309207 9.7248 0.289736 9.83213 0.175898C10.0159 -0.0189496 10.4926 -0.0442711 10.4926 0.140819C10.4926 0.203824 10.4054 0.310418 10.2973 0.379372L10.1019 0.504026L10.2661 0.505035C10.3878 0.505783 10.4394 0.542416 10.4657 0.646674C10.4852 0.72402 10.6297 0.885047 10.787 1.00451C11.0713 1.22057 11.0769 1.22193 11.8369 1.26241C12.2571 1.2848 12.6109 1.31932 12.6232 1.33912C12.6355 1.35893 12.6319 1.44617 12.6153 1.53299C12.5939 1.64468 12.5168 1.72146 12.352 1.79554C12.1026 1.90756 12.0913 2.00331 12.3275 2.00331C12.4089 2.00331 12.4992 2.0539 12.5343 2.11915C12.6274 2.29252 12.6102 2.36265 12.4744 2.36265C12.2785 2.36265 12.2597 2.53543 12.4377 2.69991C12.5251 2.7806 12.5965 2.89526 12.5965 2.9547C12.5965 3.01414 12.6467 3.10805 12.7081 3.1634C12.7805 3.22863 12.8097 3.31616 12.7913 3.41224C12.7549 3.60173 12.6374 3.60161 12.5127 3.41196C12.426 3.28022 12.3856 3.26748 12.1541 3.29909C12.0106 3.31869 11.8418 3.3083 11.779 3.27601C11.6104 3.18933 11.4916 3.24671 11.6052 3.35994C11.6545 3.40905 11.6949 3.47381 11.6949 3.50384C11.6949 3.58278 11.1414 3.84246 11.0281 3.81667C10.9755 3.80469 10.8997 3.83416 10.8597 3.88215C10.7976 3.95674 10.7641 3.95756 10.6291 3.88778C10.4299 3.78479 10.3924 3.80961 10.3042 4.10277C10.2394 4.31843 10.2448 4.35344 10.3627 4.47843C10.4342 4.55424 10.4926 4.67229 10.4926 4.74075C10.4926 4.80922 10.5332 4.88075 10.5828 4.89971C10.6423 4.92247 10.673 5.01626 10.673 5.17563C10.673 5.40377 10.6039 5.48816 10.5235 5.35841C10.4436 5.22971 10.2522 5.44147 10.2543 5.65607C10.2574 5.96164 10.4042 6.59757 10.4999 6.71954C10.8988 7.22816 11.0096 7.33357 11.1458 7.33357C11.2387 7.33357 11.3719 7.41837 11.5087 7.56454C11.6434 7.70839 11.8383 7.83337 12.0255 7.89587C12.4239 8.0289 12.5123 8.10387 12.5642 8.35257C12.5882 8.46738 12.6705 8.65565 12.747 8.77094C12.8366 8.90596 12.9012 9.1191 12.9284 9.36985C12.9983 10.015 13.1908 10.396 13.6863 10.8706C13.9251 11.0992 14.1453 11.2863 14.1755 11.2863C14.2057 11.2863 14.3411 11.3807 14.4762 11.496C14.6114 11.6113 14.7541 11.7056 14.7933 11.7056C14.8324 11.7056 14.9379 11.7631 15.0276 11.8334C15.1729 11.9473 15.2161 11.9537 15.4224 11.8921C15.5804 11.845 15.734 11.8408 15.905 11.8791C16.0856 11.9196 16.2189 11.9132 16.3805 11.8564C16.5814 11.7857 16.6245 11.7896 16.7887 11.8932C17.0254 12.0425 16.9898 12.202 16.6759 12.3995C16.3395 12.611 16.3727 12.9633 16.729 12.9633C16.8066 12.9633 16.9297 13.0266 17.0025 13.104C17.0776 13.1838 17.3559 13.3172 17.6458 13.4123C18.2271 13.6031 19.1108 14.0571 19.2294 14.2259C19.3264 14.3639 19.7514 14.5204 20.029 14.5204C20.1937 14.5204 20.2474 14.5522 20.307 14.6851C20.3476 14.7757 20.5224 14.9914 20.6953 15.1645C21.0611 15.5304 21.1005 15.6441 21.0441 16.1693C21.0122 16.4658 20.9747 16.5724 20.8854 16.62C20.7171 16.7097 20.4285 16.4878 20.2877 16.1605C20.2261 16.0173 20.1153 15.8187 20.0415 15.7193C19.9186 15.5537 19.8776 15.5386 19.5523 15.5386C19.1529 15.5386 18.8746 15.4127 18.8232 15.2088C18.7945 15.0948 18.5689 14.9397 18.4317 14.9397C18.3739 14.9397 18.2704 15.188 18.2188 15.4503C18.1977 15.5579 18.1289 15.6552 18.0497 15.6899C17.9454 15.7355 17.908 15.816 17.8782 16.0593C17.8572 16.2304 17.7798 16.4675 17.7062 16.5862C17.5782 16.7926 17.5769 16.8072 17.6776 16.918C17.7399 16.9866 17.9016 17.0496 18.0734 17.0723C18.2841 17.1002 18.3737 17.1417 18.3998 17.2237C18.4196 17.2858 18.5114 17.3756 18.6038 17.4232C18.7579 17.5026 18.7749 17.5458 18.8092 17.9466C18.8298 18.1868 18.8537 18.4493 18.8623 18.5298C18.877 18.666 18.8487 18.682 18.4573 18.7591C17.9171 18.8654 17.8293 18.9667 17.8275 19.4856C17.8262 19.8571 17.8187 19.8755 17.5903 20.0703C17.4554 20.1854 17.3375 20.3486 17.3147 20.4518C17.2929 20.551 17.2072 20.7124 17.1244 20.8104C16.9919 20.9674 16.9369 20.9881 16.6637 20.9839C16.493 20.9813 16.319 20.9654 16.2769 20.9485ZM3.69953 18.5623C3.64347 18.495 3.60365 18.4886 3.54453 18.5375C3.42863 18.6334 3.33948 18.5518 3.33948 18.3499C3.33948 18.253 3.31084 18.1738 3.27582 18.1738C3.24081 18.1738 3.2255 18.1953 3.2418 18.2215C3.29474 18.3069 3.17395 18.4318 3.07505 18.394C2.96731 18.3528 2.93405 17.8743 3.03893 17.8743C3.0742 17.8743 3.09904 17.6677 3.09904 17.3742C3.09904 16.9143 3.11344 16.8543 3.27827 16.6276C3.45707 16.3817 3.46686 16.1974 3.30111 16.1974C3.18016 16.1974 3.13152 16.0332 3.22073 15.9261C3.27369 15.8625 3.28397 15.7212 3.25566 15.446C3.18927 14.8003 3.16031 14.7151 2.98224 14.6416C2.838 14.5821 2.81852 14.5417 2.81852 14.302C2.81852 14.1072 2.84856 14.0112 2.92426 13.9641C3.01902 13.9051 3.02027 13.8912 2.93625 13.83C2.79014 13.7235 2.9567 13.4186 3.17462 13.3935C3.36881 13.3712 3.38791 13.4622 3.21926 13.606C3.04171 13.7575 3.07167 13.8876 3.30331 13.9711C3.447 14.0228 3.58208 14.028 3.75882 13.9884C4.04698 13.9239 4.018 13.945 4.13804 13.7119C4.19562 13.6001 4.3661 13.4587 4.58939 13.3375L4.94821 13.1427L5.16573 13.3825C5.28536 13.5145 5.38324 13.6628 5.38324 13.7121C5.38324 13.7618 5.43678 13.8018 5.50347 13.8018C5.59163 13.8018 5.62369 13.8417 5.62369 13.9515C5.62369 14.0613 5.59163 14.1012 5.50347 14.1012C5.43734 14.1012 5.38324 14.1282 5.38324 14.1611C5.38324 14.194 5.44872 14.221 5.52874 14.221C5.6817 14.221 5.69092 14.2427 5.7756 14.8024C5.80892 15.0226 5.79095 15.0831 5.63321 15.2815C5.41446 15.5567 5.38467 15.7046 5.51161 15.885C5.60082 16.0118 5.59818 16.0553 5.47542 16.479C5.37614 16.8218 5.35482 16.9975 5.39027 17.1807C5.42833 17.3774 5.41731 17.4427 5.33377 17.515C5.27668 17.5644 5.23941 17.6521 5.25094 17.7098C5.26247 17.7675 5.22933 17.8311 5.1773 17.851C5.12526 17.8709 5.08269 17.9516 5.08269 18.0304C5.08269 18.2242 4.96043 18.2108 4.75208 17.9941C4.46953 17.7003 4.24114 17.7837 4.24114 18.1809C4.24114 18.3691 4.20982 18.4228 4.03869 18.5282C3.7969 18.6771 3.79529 18.6773 3.69953 18.5623Z" fill="#118AB2"/>
</svg>
