<svg xmlns="http://www.w3.org/2000/svg" width="29" height="30" viewBox="0 0 29 30" fill="none">
<path d="M14.5 28.2915L10.875 24.6665H5.4375C4.95417 24.6665 4.53125 24.4802 4.16875 24.1076C3.80625 23.7351 3.625 23.3172 3.625 22.854V4.729C3.625 4.24567 3.80625 3.82275 4.16875 3.46025C4.53125 3.09775 4.95417 2.9165 5.4375 2.9165H23.5625C24.0257 2.9165 24.4436 3.09775 24.8161 3.46025C25.1887 3.82275 25.375 4.24567 25.375 4.729V22.854C25.375 23.3172 25.1887 23.7351 24.8161 24.1076C24.4436 24.4802 24.0257 24.6665 23.5625 24.6665H18.125L14.5 28.2915ZM15.1344 16.0269C15.1344 15.4026 15.2351 14.8941 15.4365 14.5014C15.6378 14.1087 15.9903 13.6606 16.4937 13.1571C17.1583 12.4925 17.6215 11.9035 17.8833 11.3899C18.1451 10.8764 18.276 10.3377 18.276 9.7738C18.276 8.70643 17.9337 7.8606 17.249 7.2363C16.5642 6.61199 15.6378 6.29984 14.4698 6.29984C13.4427 6.29984 12.5616 6.54654 11.8266 7.03994C11.0915 7.53334 10.5528 8.21303 10.2104 9.079L11.8115 9.74359C12.0934 9.1797 12.4559 8.75175 12.899 8.45973C13.342 8.16772 13.8656 8.02171 14.4698 8.02171C15.1142 8.02171 15.6227 8.18282 15.9953 8.50505C16.3679 8.82727 16.5542 9.27032 16.5542 9.83421C16.5542 10.237 16.4434 10.6247 16.2219 10.9972C16.0003 11.3698 15.6278 11.8078 15.1042 12.3113C14.359 13.0162 13.8908 13.6203 13.6995 14.1238C13.5082 14.6273 13.4125 15.2616 13.4125 16.0269H15.1344ZM14.4094 20.4978C14.7316 20.4978 15.0035 20.387 15.225 20.1655C15.4465 19.9439 15.5573 19.6721 15.5573 19.3498C15.5573 19.0276 15.4465 18.7557 15.225 18.5342C15.0035 18.3127 14.7316 18.2019 14.4094 18.2019C14.0872 18.2019 13.8153 18.3127 13.5937 18.5342C13.3722 18.7557 13.2615 19.0276 13.2615 19.3498C13.2615 19.6721 13.3722 19.9439 13.5937 20.1655C13.8153 20.387 14.0872 20.4978 14.4094 20.4978Z" fill="#118AB2"/>
</svg>