<svg xmlns="http://www.w3.org/2000/svg" width="33" height="33" viewBox="0 0 33 33" fill="none">
<g clip-path="url(#clip0_945_8838)">
<path d="M3.16675 28.26V25.98H18.3667V28.26H3.16675ZM3.16675 20.28V18H10.7667V20.28H3.16675ZM3.16675 12.3V10.02H10.7667V12.3H3.16675ZM31.9707 28.26L25.8907 22.18C25.2321 22.6867 24.5227 23.0667 23.7627 23.32C23.0027 23.5733 22.2174 23.7 21.4067 23.7C19.3041 23.7 17.5117 22.959 16.0297 21.477C14.5477 19.995 13.8067 18.2027 13.8067 16.1C13.8067 13.9973 14.5477 12.205 16.0297 10.723C17.5117 9.241 19.3041 8.5 21.4067 8.5C23.5094 8.5 25.3017 9.241 26.7837 10.723C28.2657 12.205 29.0067 13.9973 29.0067 16.1C29.0067 16.9107 28.8801 17.696 28.6267 18.456C28.3734 19.216 27.9934 19.9253 27.4867 20.584L33.5667 26.664L31.9707 28.26ZM21.3978 21.42C22.8731 21.42 24.1301 20.9036 25.1687 19.8709C26.2074 18.8382 26.7267 17.5842 26.7267 16.1089C26.7267 14.6336 26.2104 13.3767 25.1777 12.338C24.145 11.2993 22.891 10.78 21.4157 10.78C19.9404 10.78 18.6834 11.2964 17.6447 12.3291C16.6061 13.3618 16.0867 14.6158 16.0867 16.0911C16.0867 17.5664 16.6031 18.8233 17.6358 19.862C18.6685 20.9007 19.9225 21.42 21.3978 21.42Z" fill="#D0DFE4"/>
</g>
<defs>
<clipPath id="clip0_945_8838">
<rect width="32" height="32" fill="white" transform="translate(0.5 0.5)"/>
</clipPath>
</defs>
</svg>