<svg xmlns="http://www.w3.org/2000/svg" width="33" height="32" viewBox="0 0 33 32" fill="none">
<g clip-path="url(#clip0_945_9254)">
<path d="M1.93335 27.0801V23.8142H16.6296V27.0801H1.93335ZM1.93335 19.4019V16.1361H10.4801V19.4019H1.93335ZM1.93335 11.7237V8.42316H10.4801V11.7237H1.93335ZM30.2835 26.42L24.65 20.7916C24.04 21.2549 23.3827 21.5965 22.6781 21.8165C21.9735 22.0366 21.2428 22.1466 20.486 22.1466C18.3906 22.1466 16.6044 21.4103 15.1275 19.9378C13.6506 18.4654 12.9121 16.6845 12.9121 14.5954C12.9121 12.5062 13.6501 10.7236 15.1262 9.24754C16.6022 7.77148 18.3848 7.03345 20.474 7.03345C22.5632 7.03345 24.344 7.77191 25.8165 9.24883C27.289 10.7257 28.0252 12.5119 28.0252 14.6074C28.0252 15.3642 27.9152 16.0977 27.6952 16.8079C27.4751 17.5181 27.1335 18.169 26.6703 18.7605L32.3334 24.4049L30.2835 26.42ZM20.486 19.2629C21.7696 19.2629 22.8664 18.8099 23.7765 17.9039C24.6865 16.9978 25.1416 15.8976 25.1416 14.6033C25.1416 13.309 24.6886 12.2043 23.7825 11.2894C22.8765 10.3746 21.7763 9.9171 20.4819 9.9171C19.1876 9.9171 18.0888 10.3725 17.1855 11.2833C16.2822 12.1941 15.8305 13.3001 15.8305 14.6013C15.8305 15.9024 16.2831 17.0046 17.1883 17.908C18.0936 18.8113 19.1928 19.2629 20.486 19.2629Z" fill="white" stroke="white" stroke-width="0.5"/>
</g>
<defs>
<clipPath id="clip0_945_9254">
<rect width="32" height="32" fill="white" transform="translate(0.5)"/>
</clipPath>
</defs>
</svg>