<svg xmlns="http://www.w3.org/2000/svg" width="29" height="29" viewBox="0 0 29 29" fill="none">
<path d="M14.5 27.7915L10.875 24.1665H5.4375C4.95417 24.1665 4.53125 23.9802 4.16875 23.6076C3.80625 23.2351 3.625 22.8172 3.625 22.354V4.229C3.625 3.74567 3.80625 3.32275 4.16875 2.96025C4.53125 2.59775 4.95417 2.4165 5.4375 2.4165H23.5625C24.0257 2.4165 24.4436 2.59775 24.8161 2.96025C25.1887 3.32275 25.375 3.74567 25.375 4.229V22.354C25.375 22.8172 25.1887 23.2351 24.8161 23.6076C24.4436 23.9802 24.0257 24.1665 23.5625 24.1665H18.125L14.5 27.7915ZM15.1344 15.5269C15.1344 14.9026 15.2351 14.3941 15.4365 14.0014C15.6378 13.6087 15.9903 13.1606 16.4937 12.6571C17.1583 11.9925 17.6215 11.4035 17.8833 10.8899C18.1451 10.3764 18.276 9.83768 18.276 9.2738C18.276 8.20643 17.9337 7.3606 17.249 6.7363C16.5642 6.11199 15.6378 5.79984 14.4698 5.79984C13.4427 5.79984 12.5616 6.04654 11.8266 6.53994C11.0915 7.03334 10.5528 7.71303 10.2104 8.579L11.8115 9.24359C12.0934 8.6797 12.4559 8.25175 12.899 7.95973C13.342 7.66772 13.8656 7.52171 14.4698 7.52171C15.1142 7.52171 15.6227 7.68282 15.9953 8.00505C16.3679 8.32727 16.5542 8.77032 16.5542 9.33421C16.5542 9.73699 16.4434 10.1247 16.2219 10.4972C16.0003 10.8698 15.6278 11.3078 15.1042 11.8113C14.359 12.5162 13.8908 13.1203 13.6995 13.6238C13.5082 14.1273 13.4125 14.7616 13.4125 15.5269H15.1344ZM14.4094 19.9978C14.7316 19.9978 15.0035 19.887 15.225 19.6655C15.4465 19.4439 15.5573 19.1721 15.5573 18.8498C15.5573 18.5276 15.4465 18.2557 15.225 18.0342C15.0035 17.8127 14.7316 17.7019 14.4094 17.7019C14.0872 17.7019 13.8153 17.8127 13.5938 18.0342C13.3722 18.2557 13.2615 18.5276 13.2615 18.8498C13.2615 19.1721 13.3722 19.4439 13.5938 19.6655C13.8153 19.887 14.0872 19.9978 14.4094 19.9978Z" fill="white"/>
</svg>