<svg xmlns="http://www.w3.org/2000/svg" width="33" height="32" viewBox="0 0 33 32" fill="none">
<path d="M20.9 28L12.1333 24.9L6.16667 27.2667C5.78889 27.4667 5.41667 27.4556 5.05 27.2333C4.68333 27.0111 4.5 26.6778 4.5 26.2333V7.63333C4.5 7.34444 4.58333 7.08889 4.75 6.86667C4.91667 6.64444 5.13333 6.47778 5.4 6.36667L12.1333 4L20.9 7.06667L26.8333 4.7C27.2111 4.52222 27.5833 4.53889 27.95 4.75C28.3167 4.96111 28.5 5.28889 28.5 5.73333V24.5667C28.5 24.8111 28.4167 25.0222 28.25 25.2C28.0833 25.3778 27.8778 25.5111 27.6333 25.6L20.9 28ZM19.7667 25.5V8.66667L13.2333 6.46667V23.3L19.7667 25.5Z" fill="white" stroke="white" stroke-width="0.5"/>
</svg>