<svg xmlns="http://www.w3.org/2000/svg" width="33" height="33" viewBox="0 0 33 33" fill="none">
<path d="M20.9 28.5L12.1333 25.4L6.16667 27.7667C5.78889 27.9667 5.41667 27.9556 5.05 27.7333C4.68333 27.5111 4.5 27.1778 4.5 26.7333V8.13333C4.5 7.84444 4.58333 7.58889 4.75 7.36667C4.91667 7.14444 5.13333 6.97778 5.4 6.86667L12.1333 4.5L20.9 7.56667L26.8333 5.2C27.2111 5.02222 27.5833 5.03889 27.95 5.25C28.3167 5.46111 28.5 5.78889 28.5 6.23333V25.0667C28.5 25.3111 28.4167 25.5222 28.25 25.7C28.0833 25.8778 27.8778 26.0111 27.6333 26.1L20.9 28.5ZM19.7667 26V9.16667L13.2333 6.96667V23.8L19.7667 26ZM21.7667 26L26.5 24.4333V7.36667L21.7667 9.16667V26ZM6.5 25.6L11.2333 23.8V6.96667L6.5 8.53333V25.6Z" fill="#D0DFE4"/>
</svg>