<svg width="30" height="36" viewBox="0 0 30 36" fill="none" xmlns="http://www.w3.org/2000/svg">
<g filter="url(#filter0_d_981_10904)">
<path d="M2 7.5C2 4.73858 4.23858 2.5 7 2.5H21C23.7614 2.5 26 4.73858 26 7.5V21.5C26 24.2614 23.7614 26.5 21 26.5H18.5L14.848 31.3693C14.4341 31.9212 13.5987 31.8981 13.216 31.324L10 26.5H7C4.23858 26.5 2 24.2614 2 21.5V7.5Z" fill="#CF4130"/>
<path d="M14.2371 8.45967L14 8.33202L13.763 8.45967L8.16297 11.4751L7.90002 11.6166V11.9153V12.3461V12.8461H8.40002H8.76156V13.2076V17.3719L7.97603 18.6287L7.90002 18.7504V18.8937V20.0999V20.5999H8.40002H19.6H20.1V20.0999V18.8937V18.7504L20.024 18.6287L19.2385 17.3719V13.2076V12.8461H19.6H20.1V12.3461V11.9153V11.6166L19.8371 11.4751L14.2371 8.45967Z" fill="#4A4A4A" stroke="white"/>
</g>
<defs>
<filter id="filter0_d_981_10904" x="0" y="0.5" width="30" height="36" filterUnits="userSpaceOnUse" color-interpolation-filters="sRGB">
<feFlood flood-opacity="0" result="BackgroundImageFix"/>
<feColorMatrix in="SourceAlpha" type="matrix" values="0 0 0 0 0 0 0 0 0 0 0 0 0 0 0 0 0 0 127 0" result="hardAlpha"/>
<feOffset dx="1" dy="1"/>
<feGaussianBlur stdDeviation="1.5"/>
<feComposite in2="hardAlpha" operator="out"/>
<feColorMatrix type="matrix" values="0 0 0 0 0 0 0 0 0 0.46 0 0 0 0 1 0 0 0 0.41 0"/>
<feBlend mode="normal" in2="BackgroundImageFix" result="effect1_dropShadow_981_10904"/>
<feBlend mode="normal" in="SourceGraphic" in2="effect1_dropShadow_981_10904" result="shape"/>
</filter>
</defs>
</svg>
