<svg xmlns="http://www.w3.org/2000/svg" width="24" height="24" viewBox="0 0 24 24" fill="none">
<path d="M11.25 22.9498V21.0748C8.96672 20.8415 7.06672 19.9665 5.55005 18.4498C4.03338 16.9331 3.15838 15.0331 2.92505 12.7498H1.05005V11.2498H2.92505C3.15838 8.96647 4.03338 7.06647 5.55005 5.54981C7.06672 4.03314 8.96672 3.15814 11.25 2.9248V1.0498H12.75V2.9248C15.0334 3.15814 16.9334 4.03314 18.4501 5.54981C19.9667 7.06647 20.8417 8.96647 21.0751 11.2498H22.9501V12.7498H21.0751C20.8417 15.0331 19.9667 16.9331 18.4501 18.4498C16.9334 19.9665 15.0334 20.8415 12.75 21.0748V22.9498H11.25ZM12 19.5998C14.0834 19.5998 15.8709 18.854 17.3626 17.3623C18.8542 15.8706 19.6 14.0831 19.6 11.9998C19.6 9.91647 18.8542 8.12897 17.3626 6.63731C15.8709 5.14564 14.0834 4.39981 12 4.39981C9.91672 4.39981 8.12922 5.14564 6.63755 6.63731C5.14588 8.12897 4.40005 9.91647 4.40005 11.9998C4.40005 14.0831 5.14588 15.8706 6.63755 17.3623C8.12922 18.854 9.91672 19.5998 12 19.5998ZM12 15.7498C10.95 15.7498 10.0625 15.3873 9.33755 14.6623C8.61255 13.9373 8.25005 13.0498 8.25005 11.9998C8.25005 10.9498 8.61255 10.0623 9.33755 9.33731C10.0625 8.61231 10.95 8.24981 12 8.24981C13.05 8.24981 13.9375 8.61231 14.6625 9.33731C15.3876 10.0623 15.7501 10.9498 15.7501 11.9998C15.7501 13.0498 15.3876 13.9373 14.6625 14.6623C13.9375 15.3873 13.05 15.7498 12 15.7498Z" fill="#118AB2"/>
</svg>