<svg width="34" height="34" viewBox="0 0 34 34" fill="none" xmlns="http://www.w3.org/2000/svg">
<path d="M19.4792 14.1666C19.4792 13.4849 19.2365 12.9012 18.751 12.4157C18.2655 11.9302 17.6818 11.6875 17.0001 11.6875C16.6695 11.6875 16.3685 11.7465 16.0969 11.8646C15.8254 11.9826 15.5834 12.1361 15.3709 12.325L18.8417 15.7958C19.0306 15.5833 19.1841 15.3413 19.3021 15.0698C19.4202 14.7982 19.4792 14.4972 19.4792 14.1666ZM25.3938 22.3479L23.8355 20.7896C24.6383 19.5854 25.2344 18.4521 25.624 17.3896C26.0136 16.3271 26.2084 15.3472 26.2084 14.45C26.2084 11.6688 25.3195 9.39159 23.5418 7.61828C21.7641 5.84496 19.5835 4.95831 17.0001 4.95831C15.7251 4.95831 14.5386 5.17671 13.4407 5.61352C12.3428 6.05032 11.3806 6.68192 10.5542 7.50831L9.06673 6.02081C10.1292 4.98192 11.3479 4.19095 12.7228 3.64789C14.0976 3.10484 15.5234 2.83331 17.0001 2.83331C19.9987 2.83331 22.6372 3.884 24.9157 5.98539C27.1942 8.08678 28.3334 10.9083 28.3334 14.45C28.3334 15.6541 28.0914 16.9114 27.6074 18.2219C27.1233 19.5323 26.3855 20.9076 25.3938 22.3479ZM21.1438 24.1896L8.25215 11.2979C8.08687 11.7701 7.96881 12.2719 7.89798 12.8031C7.82715 13.3344 7.79173 13.8833 7.79173 14.45C7.79173 16.2208 8.55909 18.2691 10.0938 20.5948C11.6285 22.9205 13.9306 25.5118 17.0001 28.3687C17.8028 27.6368 18.5466 26.9225 19.2313 26.226C19.916 25.5295 20.5535 24.8507 21.1438 24.1896ZM29.5021 32.5479L22.6667 25.7125C21.8876 26.5861 21.0317 27.4774 20.099 28.3864C19.1664 29.2955 18.1334 30.2222 17.0001 31.1666C13.1987 27.9319 10.3594 24.9274 8.48236 22.1531C6.60527 19.3788 5.66673 16.8111 5.66673 14.45C5.66673 13.5601 5.74347 12.7119 5.89694 11.9055C6.05041 11.099 6.28062 10.3416 6.58756 9.63331L0.920898 3.96664L2.44382 2.44373L31.0251 31.025L29.5021 32.5479Z" fill="white"/>
</svg>
