<svg xmlns="http://www.w3.org/2000/svg" width="32" height="33" viewBox="0 0 32 33" fill="none">
<path d="M7.39999 23.9998C8.79999 23.0221 10.1889 22.2721 11.5667 21.7498C12.9444 21.2276 14.4222 20.9665 16 20.9665C17.5778 20.9665 19.0611 21.2276 20.45 21.7498C21.8389 22.2721 23.2333 23.0221 24.6333 23.9998C25.6111 22.7998 26.3055 21.5887 26.7167 20.3665C27.1278 19.1443 27.3333 17.8554 27.3333 16.4998C27.3333 13.2776 26.25 10.5832 24.0833 8.4165C21.9167 6.24984 19.2222 5.1665 16 5.1665C12.7778 5.1665 10.0833 6.24984 7.91666 8.4165C5.74999 10.5832 4.66666 13.2776 4.66666 16.4998C4.66666 17.8554 4.87777 19.1443 5.29999 20.3665C5.72221 21.5887 6.42221 22.7998 7.39999 23.9998ZM15.9938 17.4998C14.709 17.4998 13.6278 17.0589 12.75 16.177C11.8722 15.2951 11.4333 14.2117 11.4333 12.927C11.4333 11.6422 11.8743 10.5609 12.7562 9.68317C13.6381 8.80539 14.7214 8.3665 16.0062 8.3665C17.2909 8.3665 18.3722 8.80746 19.25 9.68937C20.1278 10.5713 20.5667 11.6546 20.5667 12.9394C20.5667 14.2241 20.1257 15.3054 19.2438 16.1832C18.3619 17.0609 17.2785 17.4998 15.9938 17.4998ZM16.0156 29.8332C14.183 29.8332 12.4555 29.4832 10.8333 28.7832C9.2111 28.0832 7.79443 27.1276 6.58332 25.9165C5.37221 24.7054 4.41666 23.2913 3.71666 21.6743C3.01666 20.0573 2.66666 18.3295 2.66666 16.491C2.66666 14.6524 3.01666 12.9276 3.71666 11.3165C4.41666 9.70539 5.37221 8.29428 6.58332 7.08317C7.79443 5.87206 9.2085 4.9165 10.8255 4.2165C12.4425 3.5165 14.1703 3.1665 16.0089 3.1665C17.8474 3.1665 19.5722 3.5165 21.1833 4.2165C22.7944 4.9165 24.2055 5.87206 25.4167 7.08317C26.6278 8.29428 27.5833 9.70575 28.2833 11.3176C28.9833 12.9294 29.3333 14.6516 29.3333 16.4842C29.3333 18.3169 28.9833 20.0443 28.2833 21.6665C27.5833 23.2887 26.6278 24.7054 25.4167 25.9165C24.2055 27.1276 22.7941 28.0832 21.1823 28.7832C19.5704 29.4832 17.8482 29.8332 16.0156 29.8332ZM16 27.8332C17.2222 27.8332 18.4167 27.6554 19.5833 27.2998C20.75 26.9443 21.9 26.3221 23.0333 25.4332C21.9 24.6332 20.7444 24.0221 19.5667 23.5998C18.3889 23.1776 17.2 22.9665 16 22.9665C14.8 22.9665 13.6111 23.1776 12.4333 23.5998C11.2555 24.0221 10.1 24.6332 8.96666 25.4332C10.1 26.3221 11.25 26.9443 12.4167 27.2998C13.5833 27.6554 14.7778 27.8332 16 27.8332ZM16 15.4998C16.7555 15.4998 17.3722 15.2609 17.85 14.7832C18.3278 14.3054 18.5667 13.6887 18.5667 12.9332C18.5667 12.1776 18.3278 11.5609 17.85 11.0832C17.3722 10.6054 16.7555 10.3665 16 10.3665C15.2444 10.3665 14.6278 10.6054 14.15 11.0832C13.6722 11.5609 13.4333 12.1776 13.4333 12.9332C13.4333 13.6887 13.6722 14.3054 14.15 14.7832C14.6278 15.2609 15.2444 15.4998 16 15.4998Z" fill="#D0DFE4"/>
</svg>