<svg xmlns="http://www.w3.org/2000/svg" width="15" height="15" viewBox="0 0 15 15" fill="none">
<g clip-path="url(#clip0_48_668)">
<path d="M2.99996 1.70344C2.55928 2.04567 2.15798 2.44501 1.80559 2.87719L2.93809 4.52907C2.59418 5.05438 2.33565 5.65437 2.18996 6.28501V6.29532L0.215586 6.60751C0.179475 6.90255 0.163086 7.20673 0.163086 7.51126C0.163086 7.7605 0.170658 8.00636 0.194961 8.24907L2.16934 8.6025C2.30976 9.2881 2.5762 9.92822 2.9484 10.4934L1.77465 12.1041C2.11093 12.5218 2.49894 12.9026 2.91746 13.2375L2.99996 13.1803V1.70344Z" fill="#990000"/>
<path d="M7.79996 0.171568V5.23594C8.88916 5.38346 9.73402 6.32095 9.73402 7.44938C9.73402 8.57751 8.88916 9.50644 7.79996 9.6525V14.8331C8.01398 14.8268 8.22416 14.8126 8.43559 14.7853L8.80965 12.78C9.47725 12.6142 10.1044 12.3254 10.649 11.9381L12.2493 13.1025C12.6641 12.7496 13.0438 12.3432 13.3715 11.9072L12.2071 10.2234C12.5221 9.67916 12.7407 9.07899 12.8512 8.43657L14.8162 8.12438C14.8332 7.91929 14.8368 7.72092 14.8368 7.51126C14.8368 7.14752 14.7944 6.79123 14.7431 6.44157L12.7481 6.07782C12.5917 5.50049 12.3351 4.96161 12.0103 4.47751L13.184 2.86688C12.82 2.42177 12.4051 2.01033 11.9475 1.66126L10.2534 2.82469C9.76668 2.53678 9.24347 2.31599 8.67465 2.19094L8.36246 0.216568C8.17614 0.194674 7.98936 0.17966 7.79996 0.171568Z" fill="#006699"/>
<path d="M7.19996 0.164069C7.18223 0.163691 7.1644 0.163979 7.14652 0.165005C7.13606 0.165605 7.12573 0.164285 7.11559 0.165005C6.96054 0.175598 6.80986 0.199164 6.65809 0.216567H6.64777L6.28402 2.20125C5.69133 2.33625 5.13391 2.56586 4.63215 2.87719L3.59996 2.13376V12.7678L4.57965 12.0947C5.16057 12.4653 5.80952 12.7252 6.51277 12.8531L6.82496 14.8172C6.94853 14.8285 7.07386 14.8326 7.19996 14.835V9.6525C6.11218 9.50644 5.27621 8.57751 5.27621 7.44938C5.27621 6.32124 6.11222 5.38098 7.19996 5.23313V0.164069Z" fill="#339966"/>
<path d="M7.11572 0.16465C6.96068 0.175243 6.81022 0.199201 6.65844 0.216604H6.64798L6.28425 2.20142C5.69155 2.33641 5.13385 2.56554 4.63209 2.87687L3.00054 1.7026C2.55945 2.045 2.15814 2.44435 1.80546 2.87687L2.93813 4.52926C2.59422 5.05457 2.33562 5.65479 2.18993 6.28543V6.29557L0.21555 6.6073C0.179439 6.90233 0.163574 7.20686 0.163574 7.51139C0.163574 7.76063 0.170443 8.00661 0.194747 8.24931L2.16916 8.60258C2.30958 9.28817 2.57633 9.92862 2.94853 10.4938L1.77429 12.1045C2.11058 12.5222 2.49884 12.9022 2.91736 13.2372L4.58008 12.0943C5.161 12.4649 5.80963 12.725 6.51289 12.8529L6.82461 14.8167C7.04605 14.837 7.27338 14.8377 7.50006 14.8377C7.82029 14.8377 8.12612 14.8256 8.43522 14.7857L8.80942 12.7799C9.47702 12.6141 10.1041 12.3256 10.6487 11.9383L12.2492 13.1021C12.6639 12.7492 13.0437 12.3432 13.3714 11.9072L12.2076 10.2237C12.5226 9.67937 12.7411 9.07883 12.8517 8.43641L14.8159 8.12469C14.8329 7.9196 14.8365 7.72105 14.8365 7.51139C14.8365 7.14765 14.7943 6.7908 14.7429 6.44113L12.748 6.0774C12.5916 5.50008 12.3349 4.96135 12.01 4.47725L13.1843 2.86647C12.8203 2.42136 12.4052 2.01013 11.9476 1.66106L10.2539 2.82489C9.76716 2.53698 9.24315 2.31606 8.67433 2.19102L8.36261 0.216604C8.07869 0.183241 7.79281 0.16465 7.50006 0.16465C7.4209 0.16465 7.33946 0.16216 7.26095 0.16465C7.22268 0.16585 7.18507 0.16243 7.1468 0.16465C7.13633 0.16525 7.12586 0.16393 7.11572 0.16465ZM7.3859 5.215C7.42385 5.21305 7.46146 5.215 7.50006 5.215C8.73027 5.215 9.73412 6.21919 9.73412 7.44939C9.73412 8.67927 8.73027 9.67299 7.50006 9.67299C6.26985 9.67299 5.27614 8.67927 5.27614 7.44939C5.27614 6.25778 6.20901 5.27486 7.3859 5.215Z" stroke="black" stroke-linecap="round" stroke-linejoin="round"/>
</g>
<defs>
<clipPath id="clip0_48_668">
<rect width="15" height="15" fill="white"/>
</clipPath>
</defs>
</svg>