<svg width="39" height="39" viewBox="0 0 39 39" fill="none" xmlns="http://www.w3.org/2000/svg">
<path d="M25.4312 17.3469C26.0406 17.3469 26.5586 17.1336 26.9852 16.707C27.4117 16.2805 27.625 15.7625 27.625 15.1531C27.625 14.5437 27.4117 14.0258 26.9852 13.5992C26.5586 13.1727 26.0406 12.9594 25.4312 12.9594C24.8219 12.9594 24.3039 13.1727 23.8773 13.5992C23.4508 14.0258 23.2375 14.5437 23.2375 15.1531C23.2375 15.7625 23.4508 16.2805 23.8773 16.707C24.3039 17.1336 24.8219 17.3469 25.4312 17.3469ZM13.5687 17.3469C14.1781 17.3469 14.6961 17.1336 15.1227 16.707C15.5492 16.2805 15.7625 15.7625 15.7625 15.1531C15.7625 14.5437 15.5492 14.0258 15.1227 13.5992C14.6961 13.1727 14.1781 12.9594 13.5687 12.9594C12.9594 12.9594 12.4414 13.1727 12.0148 13.5992C11.5883 14.0258 11.375 14.5437 11.375 15.1531C11.375 15.7625 11.5883 16.2805 12.0148 16.707C12.4414 17.1336 12.9594 17.3469 13.5687 17.3469ZM19.5071 22.0594C17.6878 22.0594 16.0401 22.5672 14.5641 23.5828C13.088 24.5984 11.9979 25.9458 11.2937 27.625H13.4469C14.0427 26.4875 14.8846 25.6073 15.9727 24.9844C17.0607 24.3615 18.2456 24.05 19.5273 24.05C20.8091 24.05 21.9849 24.3682 23.0547 25.0047C24.1245 25.6411 24.9708 26.5146 25.5937 27.625H27.7062C27.0292 25.9187 25.9482 24.5646 24.4633 23.5625C22.9784 22.5604 21.3264 22.0594 19.5071 22.0594ZM19.5 35.75C17.2521 35.75 15.1396 35.3234 13.1625 34.4703C11.1854 33.6172 9.46562 32.4594 8.00312 30.9969C6.54062 29.5344 5.38281 27.8146 4.52969 25.8375C3.67656 23.8604 3.25 21.7479 3.25 19.5C3.25 17.2521 3.67656 15.1396 4.52969 13.1625C5.38281 11.1854 6.54062 9.46562 8.00312 8.00312C9.46562 6.54062 11.1854 5.38281 13.1625 4.52969C15.1396 3.67656 17.2521 3.25 19.5 3.25C21.7479 3.25 23.8604 3.67656 25.8375 4.52969C27.8146 5.38281 29.5344 6.54062 30.9969 8.00312C32.4594 9.46562 33.6172 11.1854 34.4703 13.1625C35.3234 15.1396 35.75 17.2521 35.75 19.5C35.75 21.7479 35.3234 23.8604 34.4703 25.8375C33.6172 27.8146 32.4594 29.5344 30.9969 30.9969C29.5344 32.4594 27.8146 33.6172 25.8375 34.4703C23.8604 35.3234 21.7479 35.75 19.5 35.75ZM19.5 33.3125C23.356 33.3125 26.6221 31.9744 29.2983 29.2983C31.9744 26.6221 33.3125 23.356 33.3125 19.5C33.3125 15.644 31.9744 12.3779 29.2983 9.70174C26.6221 7.02558 23.356 5.6875 19.5 5.6875C15.644 5.6875 12.3779 7.02558 9.70174 9.70174C7.02558 12.3779 5.6875 15.644 5.6875 19.5C5.6875 23.356 7.02558 26.6221 9.70174 29.2983C12.3779 31.9744 15.644 33.3125 19.5 33.3125Z" fill="#84A5BD"/>
</svg>
