<svg width="151" height="24" viewBox="0 0 151 24" fill="none" xmlns="http://www.w3.org/2000/svg">
<g filter="url(#filter0_d_206_14995)">
<rect x="4" y="2.5" width="15" height="15" rx="4" fill="#118AB2"/>
<path d="M14.7345 5.90912V6.12397C14.464 6.1743 14.2592 6.26334 14.1202 6.39108C13.9211 6.58077 13.6863 6.87111 13.5323 7.26209L10.3984 13.9631H10.1898L7.04372 7.17499C6.8972 6.82659 6.698 6.61368 6.63789 6.53625C6.54396 6.41625 6.42843 6.32237 6.2913 6.25462C6.15417 6.18688 5.96914 6.14333 5.73621 6.12397V5.90912H8.79747V6.12397C8.44431 6.15882 8.27594 6.22076 8.17075 6.30979C8.06555 6.39883 8.01295 6.51303 8.01295 6.65238C8.01295 6.84595 8.09936 7.1479 8.27219 7.55824L10.5956 12.1746L12.8673 7.61631C13.0438 7.16726 13.1903 6.85563 13.1904 6.68142C13.1903 6.56916 13.1359 6.46174 13.0269 6.35914C12.918 6.25656 12.7947 6.18398 12.5354 6.14139C12.5167 6.13753 12.4847 6.13172 12.4396 6.12397V5.90912H14.7345Z" fill="#DDEAF3"/>
<path d="M17.4298 5.90912V6.12397C17.1593 6.1743 16.9545 6.26334 16.8155 6.39108C16.6164 6.58077 16.3816 6.87111 16.2276 7.26209L13.4772 13.9631H13.2687L10.3623 7.17499C10.2157 6.82659 10.0166 6.61368 9.95644 6.53625C9.86251 6.41625 9.74699 6.32237 9.60986 6.25462C9.47272 6.18688 9.3485 6.14333 9.11556 6.12397V5.90912H12.116V6.12397C11.7629 6.15882 11.5945 6.22076 11.4893 6.30979C11.3841 6.39883 11.3315 6.51303 11.3315 6.65238C11.3315 6.84595 11.4179 7.1479 11.5907 7.55824L13.6745 12.1746L15.5626 7.61631C15.7392 7.16726 15.8857 6.85563 15.8857 6.68142C15.8857 6.56916 15.8312 6.46174 15.7222 6.35914C15.6133 6.25656 15.4292 6.18398 15.17 6.14139C15.1512 6.13753 15.1192 6.13172 15.0742 6.12397V5.90912H17.4298Z" fill="#DDEAF3"/>
<path d="M28.4854 15V13.9473L29.5723 13.7422V6.31152L28.4854 6.10645V5.04688H29.5723H33.1543C33.8971 5.04688 34.5329 5.17676 35.0615 5.43652C35.5947 5.69629 36.0026 6.05859 36.2852 6.52344C36.5677 6.98372 36.709 7.52376 36.709 8.14355C36.709 8.76335 36.5677 9.30566 36.2852 9.77051C36.0026 10.2308 35.5947 10.5885 35.0615 10.8438C34.5329 11.099 33.8971 11.2266 33.1543 11.2266H31.2949V13.7422L32.3818 13.9473V15H28.4854ZM31.2949 9.89355H33.1543C33.765 9.89355 34.223 9.72949 34.5283 9.40137C34.8337 9.07324 34.9863 8.65853 34.9863 8.15723C34.9863 7.64681 34.8337 7.22298 34.5283 6.88574C34.223 6.5485 33.765 6.37988 33.1543 6.37988H31.2949V9.89355ZM39.8398 15.1436C39.0879 15.1436 38.5023 14.9499 38.083 14.5625C37.6637 14.1751 37.4541 13.6419 37.4541 12.9629C37.4541 12.498 37.5817 12.0902 37.8369 11.7393C38.0921 11.3883 38.4658 11.1149 38.958 10.9189C39.4502 10.7184 40.0472 10.6182 40.749 10.6182H41.877V9.99609C41.877 9.60417 41.7585 9.29199 41.5215 9.05957C41.2891 8.82715 40.9495 8.71094 40.5029 8.71094C40.2477 8.71094 40.0221 8.74284 39.8262 8.80664C39.6302 8.86589 39.4548 8.95247 39.2998 9.06641L39.1426 10.0645H37.8779L37.8643 8.23926C38.2288 8.00228 38.6344 7.81543 39.0811 7.67871C39.5277 7.53743 40.0244 7.4668 40.5713 7.4668C41.5101 7.4668 42.2484 7.68783 42.7861 8.12988C43.3285 8.56738 43.5996 9.19629 43.5996 10.0166V13.2773C43.5996 13.3776 43.5996 13.4756 43.5996 13.5713C43.6042 13.667 43.611 13.7604 43.6201 13.8516L44.3721 13.9473V15H42.123C42.0775 14.8405 42.0342 14.6855 41.9932 14.5352C41.9567 14.3848 41.9294 14.2344 41.9111 14.084C41.665 14.3939 41.3665 14.6491 41.0156 14.8496C40.6693 15.0456 40.2773 15.1436 39.8398 15.1436ZM40.2295 13.8105C40.5758 13.8105 40.8994 13.7308 41.2002 13.5713C41.501 13.4072 41.7266 13.2021 41.877 12.9561V11.7188H40.7285C40.2135 11.7188 39.8239 11.8395 39.5596 12.0811C39.2998 12.318 39.1699 12.596 39.1699 12.915C39.1699 13.2021 39.2611 13.4232 39.4434 13.5781C39.6257 13.7331 39.8877 13.8105 40.2295 13.8105ZM48.4736 17.9873C48.109 17.9873 47.7035 17.9372 47.2568 17.8369C46.8148 17.7412 46.4251 17.6068 46.0879 17.4336L46.4434 16.1758C46.735 16.3079 47.0563 16.415 47.4072 16.4971C47.7581 16.5791 48.0908 16.6201 48.4053 16.6201C48.9704 16.6201 49.3828 16.4629 49.6426 16.1484C49.9069 15.8385 50.0391 15.3988 50.0391 14.8291V14.248C49.8112 14.5397 49.54 14.763 49.2256 14.918C48.9111 15.0684 48.5511 15.1436 48.1455 15.1436C47.5439 15.1436 47.0244 14.9932 46.5869 14.6924C46.154 14.3916 45.8213 13.9701 45.5889 13.4277C45.361 12.8854 45.2471 12.2565 45.2471 11.541V11.3975C45.2471 10.609 45.361 9.9209 45.5889 9.33301C45.8213 8.74512 46.1517 8.28711 46.5801 7.95898C47.013 7.63086 47.528 7.4668 48.125 7.4668C48.5762 7.4668 48.9681 7.56022 49.3008 7.74707C49.6335 7.92936 49.916 8.19141 50.1484 8.5332L50.2783 7.60352H51.7617V14.8359C51.7617 15.4785 51.6318 16.0345 51.3721 16.5039C51.1123 16.9779 50.7363 17.3424 50.2441 17.5977C49.752 17.8574 49.1618 17.9873 48.4736 17.9873ZM48.6104 13.7832C48.943 13.7832 49.2256 13.7126 49.458 13.5713C49.695 13.43 49.8887 13.2249 50.0391 12.9561V9.66113C49.8887 9.40137 49.695 9.19857 49.458 9.05273C49.221 8.90234 48.9408 8.82715 48.6172 8.82715C48.2389 8.82715 47.9268 8.93652 47.6807 9.15527C47.4391 9.36947 47.2591 9.67025 47.1406 10.0576C47.0267 10.4404 46.9697 10.887 46.9697 11.3975V11.541C46.9697 12.2246 47.0996 12.7692 47.3594 13.1748C47.6237 13.5804 48.0407 13.7832 48.6104 13.7832ZM51.5293 8.90234L50.8047 7.60352H52.6504V8.66309L51.5293 8.90234ZM53.2451 15V13.9473L54.2705 13.7422V8.86816L53.1836 8.66309V7.60352H55.9932V13.7422L57.0117 13.9473V15H53.2451ZM54.2021 5.92871V4.33594H55.9932V5.92871H54.2021ZM57.75 15V13.9473L58.7754 13.7422V8.86816L57.6953 8.66309V7.60352H60.3613L60.4502 8.67676C60.6963 8.29395 61.0016 7.99772 61.3662 7.78809C61.7354 7.57389 62.1523 7.4668 62.6172 7.4668C63.3783 7.4668 63.9707 7.7015 64.3945 8.1709C64.8184 8.63574 65.0303 9.36491 65.0303 10.3584V13.7422L66.0557 13.9473V15H62.3438V13.9473L63.3076 13.7422V10.3721C63.3076 9.81152 63.196 9.41504 62.9727 9.18262C62.7493 8.94564 62.4167 8.82715 61.9746 8.82715C61.6419 8.82715 61.3503 8.90234 61.0996 9.05273C60.8535 9.19857 60.653 9.40365 60.498 9.66797V13.7422L61.4346 13.9473V15H57.75ZM69.2754 15.1436C68.5234 15.1436 67.9378 14.9499 67.5186 14.5625C67.0993 14.1751 66.8896 13.6419 66.8896 12.9629C66.8896 12.498 67.0173 12.0902 67.2725 11.7393C67.5277 11.3883 67.9014 11.1149 68.3936 10.9189C68.8857 10.7184 69.4827 10.6182 70.1846 10.6182H71.3125V9.99609C71.3125 9.60417 71.194 9.29199 70.957 9.05957C70.7246 8.82715 70.3851 8.71094 69.9385 8.71094C69.6833 8.71094 69.4577 8.74284 69.2617 8.80664C69.0658 8.86589 68.8903 8.95247 68.7354 9.06641L68.5781 10.0645H67.3135L67.2998 8.23926C67.6644 8.00228 68.07 7.81543 68.5166 7.67871C68.9632 7.53743 69.46 7.4668 70.0068 7.4668C70.9456 7.4668 71.6839 7.68783 72.2217 8.12988C72.764 8.56738 73.0352 9.19629 73.0352 10.0166V13.2773C73.0352 13.3776 73.0352 13.4756 73.0352 13.5713C73.0397 13.667 73.0465 13.7604 73.0557 13.8516L73.8076 13.9473V15H71.5586C71.513 14.8405 71.4697 14.6855 71.4287 14.5352C71.3923 14.3848 71.3649 14.2344 71.3467 14.084C71.1006 14.3939 70.8021 14.6491 70.4512 14.8496C70.1048 15.0456 69.7129 15.1436 69.2754 15.1436ZM69.665 13.8105C70.0114 13.8105 70.335 13.7308 70.6357 13.5713C70.9365 13.4072 71.1621 13.2021 71.3125 12.9561V11.7188H70.1641C69.6491 11.7188 69.2594 11.8395 68.9951 12.0811C68.7354 12.318 68.6055 12.596 68.6055 12.915C68.6055 13.2021 68.6966 13.4232 68.8789 13.5781C69.0612 13.7331 69.3232 13.8105 69.665 13.8105ZM81.252 15L78.9346 6.20898L77.9912 6.10645V5.04688H81.6689V6.10645L80.6094 6.26367L81.833 11.377L82.0859 12.4229L82.127 12.4297L82.4414 11.377L84.4238 5.04688H85.7705L87.8076 11.4795L88.1084 12.498H88.1494L88.416 11.4795L89.6602 6.26367L88.5391 6.10645V5.04688H92.1484V6.10645L91.2666 6.20898L88.9766 15H87.3906L85.3877 8.73145L85.1348 7.8291H85.0938L84.8271 8.74512L82.8105 15H81.252ZM92.9072 15V13.9473L93.9326 13.7422V8.86816L92.8457 8.66309V7.60352H95.6553V13.7422L96.6738 13.9473V15H92.9072ZM93.8643 5.92871V4.33594H95.6553V5.92871H93.8643ZM97.3643 15V13.9473L98.3965 13.7422V5.60059L97.3027 5.39551V4.33594H100.112V13.7422L101.076 13.9473V15H97.3643ZM102.088 15V13.9814L102.737 13.8652L102.717 13.8379L100.967 11.5273L101.999 10.3174L104.658 13.7559L105.643 13.9473V15H102.088ZM99.9482 12.9287L99.1826 11.835L102.396 8.78613L102.416 8.75879L101.644 8.65625V7.60352H105.212V8.66309L104.262 8.88184L99.9482 12.9287ZM106.319 15V13.9473L107.345 13.7422V8.86816L106.258 8.66309V7.60352H109.067V13.7422L110.086 13.9473V15H106.319ZM107.276 5.92871V4.33594H109.067V5.92871H107.276ZM110.756 17.8438V16.7842L111.754 16.5791V8.86816L110.667 8.66309V7.60352H113.299L113.408 8.47852C113.636 8.15495 113.914 7.90658 114.242 7.7334C114.57 7.55566 114.958 7.4668 115.404 7.4668C116.006 7.4668 116.521 7.63086 116.949 7.95898C117.378 8.28711 117.703 8.74512 117.927 9.33301C118.155 9.9209 118.269 10.609 118.269 11.3975V11.541C118.269 12.2611 118.155 12.8923 117.927 13.4346C117.699 13.9723 117.371 14.3916 116.942 14.6924C116.519 14.9932 116.006 15.1436 115.404 15.1436C114.98 15.1436 114.609 15.0706 114.29 14.9248C113.971 14.7744 113.698 14.5557 113.47 14.2686V16.5791L114.522 16.7842V17.8438H110.756ZM114.885 13.8174C115.45 13.8174 115.867 13.61 116.136 13.1953C116.409 12.776 116.546 12.2246 116.546 11.541V11.3975C116.546 10.887 116.484 10.4404 116.361 10.0576C116.243 9.67025 116.058 9.36947 115.808 9.15527C115.562 8.93652 115.249 8.82715 114.871 8.82715C114.552 8.82715 114.274 8.90007 114.037 9.0459C113.805 9.18717 113.616 9.3877 113.47 9.64746V13.0381C113.616 13.2887 113.805 13.4824 114.037 13.6191C114.27 13.7513 114.552 13.8174 114.885 13.8174ZM122.855 15.1436C122.158 15.1436 121.55 14.9886 121.03 14.6787C120.515 14.3643 120.114 13.9313 119.827 13.3799C119.545 12.8285 119.403 12.1973 119.403 11.4863V11.1992C119.403 10.4792 119.542 9.83887 119.82 9.27832C120.103 8.71322 120.49 8.27116 120.982 7.95215C121.475 7.62858 122.035 7.4668 122.664 7.4668C123.334 7.4668 123.895 7.60124 124.346 7.87012C124.801 8.139 125.146 8.52181 125.378 9.01855C125.61 9.51074 125.727 10.1032 125.727 10.7959V11.7803H121.188L121.174 11.8145C121.192 12.2018 121.272 12.5459 121.413 12.8467C121.559 13.1475 121.764 13.3844 122.028 13.5576C122.297 13.7308 122.623 13.8174 123.006 13.8174C123.407 13.8174 123.771 13.7627 124.1 13.6533C124.428 13.5439 124.731 13.389 125.009 13.1885L125.549 14.2686C125.257 14.5146 124.886 14.722 124.435 14.8906C123.983 15.0592 123.457 15.1436 122.855 15.1436ZM121.215 10.5703H124.079V10.3926C124.079 10.069 124.029 9.78646 123.929 9.54492C123.833 9.29883 123.68 9.10742 123.471 8.9707C123.266 8.83398 123.004 8.76562 122.685 8.76562C122.407 8.76562 122.163 8.8431 121.953 8.99805C121.743 9.15299 121.575 9.36491 121.447 9.63379C121.324 9.89811 121.24 10.1989 121.194 10.5361L121.215 10.5703ZM129.685 15.1436C129.088 15.1436 128.577 14.9932 128.153 14.6924C127.729 14.3916 127.404 13.9723 127.176 13.4346C126.952 12.8923 126.841 12.2611 126.841 11.541V11.3975C126.841 10.609 126.952 9.9209 127.176 9.33301C127.404 8.74512 127.729 8.28711 128.153 7.95898C128.582 7.63086 129.09 7.4668 129.678 7.4668C130.102 7.4668 130.471 7.54883 130.785 7.71289C131.104 7.8724 131.378 8.10254 131.605 8.40332V5.60059L130.519 5.39551V4.33594H131.605H133.328V13.7422L134.354 13.9473V15H131.838L131.701 14.1045C131.469 14.4463 131.184 14.7061 130.847 14.8838C130.514 15.057 130.127 15.1436 129.685 15.1436ZM130.17 13.7832C130.498 13.7832 130.781 13.7126 131.018 13.5713C131.255 13.4255 131.451 13.2158 131.605 12.9424V9.68164C131.455 9.41732 131.259 9.20996 131.018 9.05957C130.781 8.90462 130.503 8.82715 130.184 8.82715C129.81 8.82715 129.502 8.93652 129.261 9.15527C129.024 9.36947 128.848 9.67025 128.734 10.0576C128.62 10.4404 128.563 10.887 128.563 11.3975V11.541C128.563 12.2246 128.689 12.7692 128.939 13.1748C129.195 13.5804 129.605 13.7832 130.17 13.7832ZM135.058 15V13.9473L136.083 13.7422V8.86816L134.996 8.66309V7.60352H137.806V13.7422L138.824 13.9473V15H135.058ZM136.015 5.92871V4.33594H137.806V5.92871H136.015ZM142.051 15.1436C141.299 15.1436 140.713 14.9499 140.294 14.5625C139.875 14.1751 139.665 13.6419 139.665 12.9629C139.665 12.498 139.793 12.0902 140.048 11.7393C140.303 11.3883 140.677 11.1149 141.169 10.9189C141.661 10.7184 142.258 10.6182 142.96 10.6182H144.088V9.99609C144.088 9.60417 143.969 9.29199 143.732 9.05957C143.5 8.82715 143.16 8.71094 142.714 8.71094C142.459 8.71094 142.233 8.74284 142.037 8.80664C141.841 8.86589 141.666 8.95247 141.511 9.06641L141.354 10.0645H140.089L140.075 8.23926C140.44 8.00228 140.845 7.81543 141.292 7.67871C141.739 7.53743 142.235 7.4668 142.782 7.4668C143.721 7.4668 144.459 7.68783 144.997 8.12988C145.539 8.56738 145.811 9.19629 145.811 10.0166V13.2773C145.811 13.3776 145.811 13.4756 145.811 13.5713C145.815 13.667 145.822 13.7604 145.831 13.8516L146.583 13.9473V15H144.334C144.288 14.8405 144.245 14.6855 144.204 14.5352C144.168 14.3848 144.14 14.2344 144.122 14.084C143.876 14.3939 143.577 14.6491 143.227 14.8496C142.88 15.0456 142.488 15.1436 142.051 15.1436ZM142.44 13.8105C142.787 13.8105 143.11 13.7308 143.411 13.5713C143.712 13.4072 143.938 13.2021 144.088 12.9561V11.7188H142.939C142.424 11.7188 142.035 11.8395 141.771 12.0811C141.511 12.318 141.381 12.596 141.381 12.915C141.381 13.2021 141.472 13.4232 141.654 13.5781C141.837 13.7331 142.099 13.8105 142.44 13.8105Z" fill="#118AB2"/>
<path d="M28.0342 16.3672H146.966V17.0508H28.0342V16.3672Z" fill="#118AB2"/>
</g>
<defs>
<filter id="filter0_d_206_14995" x="0" y="-1" width="154" height="26" filterUnits="userSpaceOnUse" color-interpolation-filters="sRGB">
<feFlood flood-opacity="0" result="BackgroundImageFix"/>
<feColorMatrix in="SourceAlpha" type="matrix" values="0 0 0 0 0 0 0 0 0 0 0 0 0 0 0 0 0 0 127 0" result="hardAlpha"/>
<feOffset dy="2"/>
<feGaussianBlur stdDeviation="2"/>
<feComposite in2="hardAlpha" operator="out"/>
<feColorMatrix type="matrix" values="0 0 0 0 0 0 0 0 0 0 0 0 0 0 0 0 0 0 0.05 0"/>
<feBlend mode="normal" in2="BackgroundImageFix" result="effect1_dropShadow_206_14995"/>
<feBlend mode="normal" in="SourceGraphic" in2="effect1_dropShadow_206_14995" result="shape"/>
</filter>
</defs>
</svg>
