<svg width="20" height="20" viewBox="0 0 20 20" fill="none" xmlns="http://www.w3.org/2000/svg">
<path d="M10.0001 18.3332C8.83341 18.3332 7.74314 18.1144 6.72925 17.6769C5.71536 17.2394 4.83341 16.6457 4.08341 15.8957C3.33341 15.1457 2.74314 14.2603 2.31258 13.2394C1.88203 12.2186 1.66675 11.1248 1.66675 9.95817C1.66675 8.7915 1.88203 7.7047 2.31258 6.69775C2.74314 5.69081 3.33341 4.81234 4.08341 4.06234C4.83341 3.31234 5.71536 2.72553 6.72925 2.30192C7.74314 1.87831 8.83341 1.6665 10.0001 1.6665C11.1667 1.6665 12.257 1.87831 13.2709 2.30192C14.2848 2.72553 15.1667 3.31234 15.9167 4.06234C16.6667 4.81234 17.257 5.69081 17.6876 6.69775C18.1181 7.7047 18.3334 8.7915 18.3334 9.95817C18.3334 11.1248 18.1181 12.2186 17.6876 13.2394C17.257 14.2603 16.6667 15.1457 15.9167 15.8957C15.1667 16.6457 14.2848 17.2394 13.2709 17.6769C12.257 18.1144 11.1667 18.3332 10.0001 18.3332ZM10.0001 17.1248C10.4862 16.6248 10.8924 16.0519 11.2188 15.4061C11.5452 14.7603 11.8126 13.9929 12.0209 13.104H8.00008C8.19453 13.9373 8.45494 14.6873 8.78133 15.354C9.10772 16.0207 9.51397 16.6109 10.0001 17.1248ZM8.22925 16.8748C7.88203 16.3471 7.58341 15.7776 7.33341 15.1665C7.08341 14.5554 6.87508 13.8679 6.70841 13.104H3.58341C4.11119 14.0901 4.7223 14.8644 5.41675 15.4269C6.11119 15.9894 7.04869 16.4721 8.22925 16.8748ZM11.7917 16.854C12.7917 16.5346 13.6911 16.0554 14.4897 15.4165C15.2883 14.7776 15.9306 14.0068 16.4167 13.104H13.3126C13.132 13.854 12.9202 14.5346 12.6772 15.1457C12.4341 15.7568 12.139 16.3262 11.7917 16.854ZM3.16675 11.854H6.47925C6.43758 11.479 6.41328 11.1422 6.40633 10.8436C6.39939 10.545 6.39591 10.2498 6.39591 9.95817C6.39591 9.61095 6.40286 9.30192 6.41675 9.03109C6.43064 8.76025 6.45841 8.45817 6.50008 8.12484H3.16675C3.06953 8.45817 3.00355 8.75678 2.96883 9.02067C2.93411 9.28456 2.91675 9.59706 2.91675 9.95817C2.91675 10.3193 2.93411 10.6422 2.96883 10.9269C3.00355 11.2116 3.06953 11.5207 3.16675 11.854ZM7.77091 11.854H12.2501C12.3056 11.4234 12.3404 11.0728 12.3542 10.8019C12.3681 10.5311 12.3751 10.2498 12.3751 9.95817C12.3751 9.68039 12.3681 9.41303 12.3542 9.15609C12.3404 8.89914 12.3056 8.55539 12.2501 8.12484H7.77091C7.71536 8.55539 7.68064 8.89914 7.66675 9.15609C7.65286 9.41303 7.64591 9.68039 7.64591 9.95817C7.64591 10.2498 7.65286 10.5311 7.66675 10.8019C7.68064 11.0728 7.71536 11.4234 7.77091 11.854ZM13.5001 11.854H16.8334C16.9306 11.5207 16.9966 11.2116 17.0313 10.9269C17.0661 10.6422 17.0834 10.3193 17.0834 9.95817C17.0834 9.59706 17.0661 9.28456 17.0313 9.02067C16.9966 8.75678 16.9306 8.45817 16.8334 8.12484H13.5209C13.5626 8.61095 13.5904 8.98248 13.6042 9.23942C13.6181 9.49636 13.6251 9.73595 13.6251 9.95817C13.6251 10.2637 13.6147 10.5519 13.5938 10.8228C13.573 11.0936 13.5417 11.4373 13.5001 11.854ZM13.2917 6.87484H16.4167C15.9584 5.9165 15.3299 5.11789 14.5313 4.479C13.7327 3.84011 12.8126 3.38873 11.7709 3.12484C12.1181 3.63873 12.4133 4.19428 12.6563 4.7915C12.8994 5.38873 13.1112 6.08317 13.2917 6.87484ZM8.00008 6.87484H12.0417C11.889 6.13873 11.632 5.42692 11.2709 4.73942C10.9098 4.05192 10.4862 3.44428 10.0001 2.9165C9.55564 3.2915 9.18064 3.78456 8.87508 4.39567C8.56953 5.00678 8.27786 5.83317 8.00008 6.87484ZM3.58341 6.87484H6.72925C6.88203 6.12484 7.07647 5.4547 7.31258 4.86442C7.54869 4.27414 7.8473 3.70123 8.20841 3.14567C7.16675 3.40956 6.25703 3.854 5.47925 4.479C4.70147 5.104 4.06953 5.90261 3.58341 6.87484Z" fill="#118AB2"/>
</svg>
